<svg version="1.0" xmlns="http://www.w3.org/2000/svg"
 width="180.000000pt" height="80.000000pt" viewBox="0 0 180.000000 80.000000"
 preserveAspectRatio="xMidYMid meet">

<g transform="translate(0.000000,80.000000) scale(0.100000,-0.100000)"
fill="#FF0000" stroke="none">
<path d="M0 400 l0 -400 400 0 400 0 0 400 0 400 -400 0 -400 0 0 -400z m300
195 l0 -95 26 0 c22 0 25 -4 22 -27 l-3 -28 -112 -3 -113 -3 0 31 0 30 60 0
60 0 0 70 0 70 -50 0 c-47 0 -50 2 -50 25 0 25 1 25 80 25 l80 0 0 -95z m360
70 c0 -25 -1 -25 -90 -25 -89 0 -90 0 -90 25 0 25 1 25 90 25 89 0 90 0 90
-25z m20 -195 l0 -31 -112 3 -113 3 -3 28 -3 27 115 0 116 0 0 -30z m-338
-115 c3 -3 0 -34 -7 -68 -7 -34 -18 -88 -25 -119 l-11 -58 -105 0 c-57 0 -104
4 -104 9 0 35 13 41 86 41 l73 0 10 38 c5 20 12 52 16 70 l7 32 -51 0 c-44 0
-51 -3 -51 -19 0 -35 -12 -51 -36 -51 -27 0 -29 8 -13 80 l11 50 97 0 c54 0
100 -2 103 -5z m338 -120 l0 -125 -115 0 -115 0 0 118 c0 65 3 122 7 125 3 4
55 7 115 7 l108 0 0 -125z"/>
<path d="M510 230 l0 -70 60 0 60 0 0 70 0 70 -60 0 -60 0 0 -70z"/>
<path d="M1000 400 l0 -400 400 0 400 0 0 400 0 400 -400 0 -400 0 0 -400z
m150 207 c0 -95 15 -130 47 -111 15 9 19 27 21 103 3 89 3 91 27 91 25 0 25 0
25 -100 0 -94 -2 -103 -25 -125 -33 -34 -87 -34 -120 0 -23 22 -25 31 -25 125
l0 100 25 0 c25 0 25 -1 25 -83z m270 21 l29 -63 1 63 0 62 30 0 30 0 0 -125
0 -125 -30 0 c-27 0 -33 6 -59 63 l-29 62 -1 -62 -1 -63 -30 0 -30 0 0 125 0
125 31 0 c27 0 33 -6 59 -62z m220 -63 l0 -125 -25 0 -25 0 0 125 0 125 25 0
25 0 0 -125z m-250 -306 l0 -99 60 0 c57 0 60 -1 60 -25 0 -25 -1 -25 -90 -25
l-90 0 0 124 c0 121 1 125 23 128 12 2 25 2 30 0 4 -2 7 -48 7 -103z m-144 76
c24 -24 25 -30 20 -108 -3 -45 -6 -91 -8 -102 -1 -11 1 -30 6 -42 6 -20 4 -23
-22 -23 -23 0 -31 5 -36 25 -5 18 -13 25 -32 25 -14 0 -36 11 -49 25 -22 21
-25 33 -25 100 0 67 3 79 25 100 33 34 87 34 121 0z m429 0 c22 -21 25 -33 25
-100 0 -67 -3 -79 -25 -100 -33 -34 -87 -34 -120 0 -22 21 -25 33 -25 100 0
67 3 79 25 100 16 17 35 25 60 25 25 0 44 -8 60 -25z"/>
<path d="M1160 291 c-23 -43 -6 -131 25 -131 20 0 35 32 35 75 0 43 -15 75
-35 75 -8 0 -19 -9 -25 -19z"/>
<path d="M1592 298 c-15 -15 -16 -92 -2 -119 24 -43 60 -9 60 56 0 62 -28 93
-58 63z"/>
</g>
</svg>
