<?xml version="1.0" standalone="no"?>
<!DOCTYPE svg PUBLIC "-//W3C//DTD SVG 1.1//EN" "http://www.w3.org/Graphics/SVG/1.1/DTD/svg11.dtd" >
<svg xmlns="http://www.w3.org/2000/svg">
<metadata>Generated by IcoMoon</metadata>
<defs>
<font id="icomoon" horiz-adv-x="1024">
<font-face units-per-em="1024" ascent="960" descent="-64" />
<missing-glyph horiz-adv-x="1024" />
<glyph unicode="&#x20;" horiz-adv-x="512" d="" />
<glyph unicode="&#xe600;" glyph-name="uniE600" d="M767.968 192c-70.752 0-128-57.312-128-128s57.248-128 128-128c70.624 0 128 57.312 128 128s-57.376 128-128 128zM447.968 192c-70.752 0-128-57.312-128-128s57.248-128 128-128c70.624 0 128 57.312 128 128s-57.376 128-128 128zM1011.968 741.376c-12.128 16.736-31.36 26.624-52 26.624h-657.888l-49.472 148.256c-8.64 26.112-33.152 43.744-60.64 43.744h-128c-35.36 0-64-28.64-64-64s28.64-64 64-64h81.888l177.376-532.256c8.736-26.112 33.12-43.744 60.736-43.744h448c27.616 0 52 17.632 60.736 43.744l128 384c6.528 19.52 3.264 40.992-8.736 57.632z" />
<glyph unicode="&#xe601;" d="M0 960h1024v-1024h-1024v1024z" />
<glyph unicode="&#xe602;" glyph-name="uniE602" d="M64 192h896c35.2 0 64 28.8 64 64v640c0 35.2-28.8 64-64 64h-896c-35.2 0-64-28.8-64-64v-640c0-35.2 28.8-64 64-64zM128 832h768v-448h-768v448zM640 64v64h-256v-64c0-35.2-28.8-64-64-64h-64v-64h512v64h-64c-35.2 0-64 28.8-64 64z" />
<glyph unicode="&#xe603;" glyph-name="uniE603" d="M90.695 576.11c-3.497 0-6.302-2.804-6.302-6.254v-15.785c0-3.529 2.867-6.302 6.302-6.302s6.239 2.836 6.239 6.302v15.785c0.047 3.45-2.741 6.254-6.239 6.254zM171.244 576.11c-3.56 0-6.333-2.804-6.333-6.254v-15.785c0-3.529 2.82-6.302 6.333-6.302 3.466 0 6.239 2.836 6.239 6.302v15.785c0.063 3.45-2.773 6.254-6.239 6.254zM205.95 667.735h-150.008v-150.024h149.992l0.016 150.024zM166.502 647.207h9.515v-47.388h-9.515v47.388zM106.48 554.039c0-4.411-1.78-8.35-4.679-11.28l4.679-14.052h-9.5l-3.151 9.767c-1.008-0.205-2.095-0.331-3.072-0.331-8.728 0-15.801 7.089-15.801 15.817v15.833c0 8.728 7.058 15.817 15.801 15.817 8.712 0 15.785-7.089 15.785-15.817l-0.063-15.754zM106.48 615.605c0-8.712-7.058-15.801-15.785-15.801s-15.801 7.089-15.801 15.801v31.602h9.5v-31.602c0-3.482 2.867-6.286 6.302-6.286s6.254 2.836 6.254 6.286v31.602h9.515v-31.602h0.016zM150.686 538.222h-31.555v47.435h9.515v-37.904h22.040v-9.531zM150.686 599.82h-9.484l-12.635 27.112v-27.144h-9.452v47.419h9.515l12.619-27.081v27.081h9.452v-47.388zM187.030 554.039c0-8.743-7.089-15.848-15.77-15.848-8.806 0-15.801 7.089-15.801 15.848v15.785c0 8.728 7.010 15.817 15.801 15.817 8.696 0 15.77-7.089 15.77-15.817v-15.785zM402.085 723.692h-392.223c-5.498 0-9.862-4.411-9.862-9.862v-528.857c0-5.451 4.348-9.846 9.862-9.846h392.208c5.514 0 9.862 4.395 9.862 9.846v528.857c0.016 5.451-4.395 9.862-9.846 9.862zM196.104 194.851h-49.184v115.192h49.136l0.047-115.192zM265.027 194.851h-49.12v115.192h49.12v-115.192zM392.239 194.851h-107.488v125.054c0 5.451-4.348 9.846-9.862 9.846h-137.846c-5.451 0-9.862-4.395-9.862-9.846v-125.070h-107.457v509.133h372.515v-509.117zM1018.234 235.528l-60.983 97.501v283.979c0 5.199-4.191 9.452-9.389 9.452h-421.888c-5.199 0-9.389-4.254-9.389-9.452v-285.995l-59.691-95.5c-0.977-1.481-1.434-3.198-1.434-4.915v-45.229c0-5.199 4.206-9.452 9.405-9.452h545.398c5.199 0 9.389 4.254 9.389 9.452v45.229c-0.016 1.733-0.504 3.466-1.418 4.931zM535.394 607.634h403.046v-267.91h-403.046v267.91zM1000.842 194.741h-526.557v33.146l58.195 93.011h410.183l58.147-93.011 0.032-33.146zM559.608 585.027h355.785v-221.861h-355.785v221.861zM549.116 301.442l-28.893-48.553h435.877l-27.569 48.553z" />
<glyph unicode="&#xe604;" glyph-name="uniE604" d="M587.999 886.851l0.045-701.128 193.714 185.389c29.83 28.538 78.447 28.449 108.099 0 29.785-28.627 29.83-75.153 0.045-103.379l-324.118-310.361c-13.891-13.089-32.991-21.326-54.049-21.37-21.148 0.045-40.248 8.281-54.094 21.37l-323.985 310.406c-29.785 28.494-29.785 75.108 0 103.335 29.651 28.449 78.314 28.583 108.099 0l193.803-185.389v701.128c-0.089 40.248 34.193 73.149 76.132 73.149 41.895-0.045 76.31-32.902 76.31-73.149z" />
<glyph unicode="&#xe605;" glyph-name="icn_chevron_down" d="M512 287.659l-298.667 257.109 57.003 63.573 241.664-208.043 241.664 208.043 57.003-63.573-298.667-257.109z" />
<glyph unicode="&#xe606;" glyph-name="uniE606" d="M0 960h431.158v-431.158h-431.158v431.158zM592.842 960h431.158v-431.158h-431.158v431.158zM592.842 367.158h431.158v-431.158h-431.158v431.158zM0 367.158h431.158v-431.158h-431.158v431.158z" />
<glyph unicode="&#xe607;" glyph-name="uniE607" d="M1024 585.472c0 143.168-120.512 310.528-268.512 310.528-108 0-200.544-61.376-243.36-149.728-42.88 88.352-135.616 149.728-243.264 149.728-148.352 0-268.864-167.36-268.864-310.528 0-10.88 2.048-21.76 3.424-32.736h-0.288c31.936-279.104 456.192-539.616 456.192-539.616 29.056-17.824 76.288-17.376 105.12 0.672 0 0 423.552 268 456.384 538.88h-0.384c1.504 11.072 3.552 21.952 3.552 32.8z" />
<glyph unicode="&#xe608;" glyph-name="uniE608" d="M512 960c-282.752 0-512-229.12-512-512 0-282.752 229.248-512 512-512s512 229.248 512 512c0 282.88-229.248 512-512 512zM576 160c0-17.6-14.432-32-32-32h-64c-17.632 0-32 14.4-32 32v320c0 17.6 14.368 32 32 32h64c17.568 0 32-14.4 32-32v-320zM512 576c-53.12 0-96 43.008-96 96s42.88 96 96 96c52.992 0 96-43.008 96-96s-43.008-96-96-96z" />
<glyph unicode="&#xe609;" glyph-name="uniE609" d="M1024.976 605.771c0 193.079-157.73 350.816-350.809 350.816-193.072 0-350.816-157.737-350.816-350.816 0-11.667 0-27.45 3.796-39.424v0c0-15.776 3.789-35.335 7.878-51.104l-311.364-307.275c-11.674-11.674-23.661-35.342-23.661-55.214v-90.549c0 0 0-51.098 0-90.542 0-39.431 43.22-35.335 43.22-35.335h177.289c15.776 0 31.546 15.783 31.546 31.546v63.099c0 15.776 15.776 31.546 31.546 31.546h63.092c15.783 0 31.546 15.776 31.546 31.546v63.092c0 15.776 15.783 31.539 31.546 31.539v0 0h63.099c15.783 0 31.546 15.783 31.546 31.546v39.431c0 3.789 3.789 27.45 35.328 15.783h7.584c35.335-11.68 74.772-19.552 114.203-19.552 145.763 0 271.947 86.746 327.148 212.623v0c24.617 42.912 36.284 89.928 36.284 137.243zM737.266 763.515c51.098 0 94.631-43.226 94.631-94.645 0-51.104-43.22-94.638-94.631-94.638-51.425 0-94.645 43.213-94.645 94.638-3.782 55.207 39.752 94.645 94.645 94.645z" />
<glyph unicode="&#xe60a;" glyph-name="uniE60A" d="M950.851 371.868h-701.128l185.389-193.714c28.538-29.785 28.449-78.358 0-108.054-28.538-29.741-75.064-29.785-103.379 0l-310.361 324.118c-13.178 13.846-21.37 32.902-21.37 54.005s8.192 40.203 21.37 54.094l310.361 324.029c28.494 29.785 75.064 29.785 103.379 0 28.449-29.651 28.538-78.314 0-108.054l-185.389-193.803h701.128c40.292 0.089 73.149-34.237 73.149-76.177 0-42.029-32.857-76.444-73.149-76.444z" />
<glyph unicode="&#xe60b;" glyph-name="icn_chevron_left" d="M351.872 448l257.109-298.667 63.531 57.003-208 241.664 208 241.664-63.531 57.003-257.109-298.667z" />
<glyph unicode="&#xe60c;" glyph-name="uniE60C" d="M943.158 151.579h-485.053c-44.409 0-80.842-36.433-80.842-80.842 0-44.463 36.433-80.842 80.842-80.842h485.053c44.517 0 80.842 36.379 80.842 80.842 0 44.409-36.325 80.842-80.842 80.842zM943.158 528.842h-485.053c-44.409 0-80.842-36.433-80.842-80.842 0-44.463 36.433-80.842 80.842-80.842h485.053c44.517 0 80.842 36.379 80.842 80.842 0 44.409-36.325 80.842-80.842 80.842zM458.105 744.421h485.053c44.517 0 80.842 36.379 80.842 80.842 0 44.409-36.325 80.842-80.842 80.842h-485.053c-44.409 0-80.842-36.433-80.842-80.842 0-44.463 36.433-80.842 80.842-80.842zM0 205.474h269.474v-269.474h-269.474v269.474zM0 582.737h269.474v-269.474h-269.474v269.474zM0 960h269.474v-269.474h-269.474v269.474z" />
<glyph unicode="&#xe60d;" glyph-name="uniE60D" d="M512.032 960c-256.032 0-384.032-192-384.032-384s384.032-640 384.032-640 383.968 448 383.968 640-128 384-383.968 384zM512 448c-70.688 0-128 57.312-128 128s57.312 128 128 128 128-57.312 128-128-57.312-128-128-128z" />
<glyph unicode="&#xe60e;" glyph-name="uniE60E" d="M80.672 8.864c22.816-21.92 51.264-40.064 82.496-52.608 22.368-8.736 43.744-14.304 65.376-16.992 14.752-1.92 30.080-3.072 45.76-3.232 156.992-1.76 336.256 89.408 498.88 250.816 161.376 162.592 252.608 341.856 250.816 498.848-0.128 15.712-1.312 31.072-3.2 45.728-2.752 21.664-8.32 43.072-16.992 65.44-12.576 31.264-30.752 59.68-52.64 82.496l-53.312 53.664c-16.48 16.512-38.048 26.048-60.8 26.912-23.264 0.896-44.896-7.424-60.896-23.488l-151.616-151.552c-31.616-31.616-29.856-88.128 3.52-121.6l100.416-100.448c-1.792-3.456-3.808-6.944-5.728-10.56-26.464-48.224-62.464-114.336-131.584-183.424-69.12-69.056-135.232-105.12-183.36-131.552-3.68-1.984-7.2-3.904-10.624-5.792l-100.384 100.416c-33.504 33.408-90.016 35.104-121.696 3.52l-151.552-151.616c-16-16-24.32-37.568-23.488-60.896 0.864-22.688 10.432-44.192 26.976-60.704l53.632-53.376z" />
<glyph unicode="&#xe60f;" glyph-name="uniE60F" d="M1002.794 542.134l-425.63 84.899v250.34c0 19.903-16.142 36.082-36.082 36.082h-505c-19.866 0-36.082-16.142-36.082-36.082v-505.018c0-19.903 16.198-36.082 36.082-36.082h373.909l-43.697-218.95c-3.891-19.53 8.862-38.54 28.318-42.431l495.281-98.788c19.568-3.891 38.54 8.825 42.431 28.318l98.807 495.299c3.873 19.53-8.769 38.521-28.337 42.412zM428.181 472.073c-0.428 76.409-63.097 138.836-139.599 138.836-76.539 0-139.134-62.408-139.599-138.836h-115.042v407.422h509.282v-245.667l-35.71 7.112c-19.475 3.873-38.521-8.769-42.412-28.318l-28.002-140.511h-8.918v-0.037zM918.528 108.888l-112.1 22.36c0.149 0.577 0.503 1.061 0.652 1.638 12.102 71.457-37.646 139.636-110.555 151.533-70.284 11.45-137.309-33.494-152.911-100.762l-124.518 24.837 42.003 210.534 10.575 53.080 27.108 135.987 499.451-99.626-79.704-399.583zM700.211 306.074c36.436-5.921 71.27 18.432 77.303 54.142l7.373 43.306c6.032 35.747-18.842 69.818-55.277 75.757-36.473 5.902-71.233-18.432-77.303-54.16l-7.354-43.306c-6.051-35.71 18.823-69.8 55.259-75.739zM358.4 748.293c0 23.999-22.77 72.071-69.818 72.071-46.043 0-69.818-48.072-69.818-72.071 0 0 0.056-63.637-23.273-77.191 0 0 4.692-10.65 44.516-14.299 13.163-12.53 34.555-22.621 48.575-22.621 14.094 0 35.505 10.259 48.687 22.882-0.112-0.093-0.186-0.186-0.298-0.298 39.917 3.593 44.684 14.336 44.684 14.336-23.291 13.554-23.254 77.191-23.254 77.191z" />
<glyph unicode="&#xe610;" glyph-name="uniE610" d="M73.149 524.622h701.128l-185.389 193.714c-28.538 29.785-28.449 78.358 0 108.054 28.494 29.741 75.019 29.785 103.379 0l310.361-324.118c13.178-13.846 21.37-32.902 21.37-54.005 0-21.148-8.192-40.203-21.37-54.094l-310.361-324.074c-28.494-29.741-75.064-29.741-103.379 0-28.449 29.651-28.538 78.314 0 108.054l185.389 193.803h-701.128c-40.292-0.089-73.149 34.282-73.149 76.221 0 42.029 32.857 76.444 73.149 76.444z" />
<glyph unicode="&#xe611;" glyph-name="icn_chevron_right" d="M672.341 448l-257.152 298.667-63.531-57.003 208.043-241.664-208.043-241.664 63.531-57.003 257.152 298.667z" />
<glyph unicode="&#xe612;" glyph-name="uniE612" d="M28.128-35.872c18.752-18.752 43.296-28.128 67.872-28.128s49.12 9.376 67.872 28.128l226.080 226.112c63.424-39.232 137.92-62.24 218.048-62.24 229.76 0 416 186.24 416 416s-186.24 416-416 416-416-186.24-416-416c0-80 23.008-154.624 62.176-218.016l-226.048-226.112c-37.504-37.504-37.504-98.24 0-135.744zM352 544c0 141.12 114.816 256 256 256 141.12 0 256-114.88 256-256s-114.88-256-256-256c-141.184 0-256 114.88-256 256z" />
<glyph unicode="&#xe613;" glyph-name="icn_external_link" d="M682.667 106.667h-426.667c-47.128 0-85.333 38.205-85.333 85.333v426.667c0 47.128 38.205 85.333 85.333 85.333h128v-85.333h-128v-426.667h426.667v128h85.333v-128c0-47.128-38.205-85.333-85.333-85.333zM853.333 448h-85.333v256h-256v85.333h341.333v-341.333zM391.207 387.499l389.282 389.282 60.34-60.34-389.282-389.282-60.34 60.34z" />
<glyph unicode="&#xe614;" glyph-name="uniE614" d="M560.324 721.321c-15.12 11.329-34.358 16.406-48.978 18.781v9.913c20.284 9.63 34.533 32.419 34.533 59.065 0 35.317-25.055 63.946-55.95 63.946s-55.95-28.628-55.95-63.946c0-26.646 14.249-49.435 34.511-59.065v-9.891c-14.619-2.375-33.857-7.473-48.978-18.781-27.604-20.698-44.424-76.386-58.847-144.253-9.434-44.359-27.299-129.743-27.299-135.299-0.022-7.495 6.819-13.9 14.837-15.556 8.628-1.765 15.099 0.458 18.258 6.34 4.031 7.517 47.605 182.751 47.605 182.751s4.924-91.136 4.771-169.592c-0.087-44.337 4.532-214.125 5.578-222.404 1.089-8.737 3.007-24.554 23.922-24.554 16.297 0 20.393 9.412 21.504 24.554 1.089 14.99 5.774 275.478 20.066 275.674 14.292-0.218 18.998-260.684 20.066-275.674 1.111-15.142 5.207-24.554 21.526-24.554 20.938 0 22.855 15.818 23.922 24.554 1.068 8.301 5.708 178.045 5.599 222.404-0.196 78.434 4.771 169.592 4.771 169.592s43.553-175.235 47.605-182.751c3.159-5.904 9.63-8.105 18.258-6.34 7.996 1.634 14.859 8.039 14.837 15.556 0 5.556-17.844 90.94-27.299 135.299-14.445 67.845-31.265 123.534-58.869 144.231zM208.918 670.666c-13.813 10.349-31.395 14.968-44.707 17.103v10.393c21.373 8.998 36.69 32.267 36.69 59.828 0 35.339-25.055 63.967-55.95 63.967-30.916 0-55.95-28.65-55.95-63.967 0-27.539 15.316-50.83 36.668-59.828v-10.393c-13.312-2.135-30.894-6.754-44.707-17.103-25.077-18.802-40.372-69.392-53.466-131.094-8.562-40.285-24.794-117.869-24.816-122.945 0-6.798 6.209-12.637 13.486-14.096 7.843-1.612 13.726 0.414 16.602 5.752 3.682 6.819 43.269 166.041 43.269 166.041s4.488-80.722 4.314-151.966c-0.087-40.328 4.118-194.582 5.098-202.077 1.002-7.931 2.723-22.31 21.722-22.31 14.837 0 18.563 8.541 19.565 22.31 0.98 13.595 5.251 250.292 18.236 250.488 12.963-0.218 17.212-236.914 18.214-250.51 1.002-13.791 4.728-22.332 19.543-22.332 18.998 0 20.741 14.38 21.744 22.332 0.959 7.538 5.142 161.792 5.076 202.077-0.153 71.266 4.314 151.966 4.314 151.966s39.587-159.221 43.248-166.062c2.876-5.338 8.758-7.364 16.602-5.752 7.299 1.503 13.486 7.299 13.486 14.096 0 5.055-16.231 82.639-24.794 122.945-13.094 61.723-28.389 112.335-53.488 131.137zM998.422 608.659c-14.423 67.867-28.389 137.107-54.904 159.178-16.58 13.791-41.287 18.476-59.065 20.066v10.175c21.591 9.891 36.886 33.945 36.886 62.181 0 37.038-26.254 67.061-58.673 67.061-32.376 0-58.673-30.023-58.673-67.061 0-28.236 15.316-52.289 36.908-62.181v-10.175c-17.757-1.59-42.485-6.253-59.065-20.066-26.515-22.070-40.481-91.31-54.882-159.178-9.412-44.381-27.539-144.776-27.539-150.31-0.044-7.517 6.819-13.922 14.815-15.556 8.628-1.765 14.815 0.109 17.408 4.292 4.51 7.255 55.187 214.648 55.187 214.648s4.946-102.749 4.771-181.183c-0.087-44.337 4.532-248.941 5.578-257.242 1.089-8.737 2.985-24.554 23.922-24.554 16.34 0 20.436 9.412 21.526 24.554 1.068 14.99 5.795 298.681 20.044 298.899 14.292-0.218 18.998-283.909 20.088-298.899 1.111-15.142 5.185-24.554 21.504-24.554 20.916 0 22.855 15.818 23.944 24.554 1.024 8.301 5.665 212.883 5.578 257.242-0.131 78.434 4.771 181.183 4.771 181.183s50.677-207.393 55.187-214.648c2.636-4.205 8.758-6.057 17.408-4.292 8.018 1.634 14.815 8.039 14.815 15.556 0 5.556-18.127 105.93-27.539 150.31zM70.765 123.828l-20.24-43.335-20.262 43.335h-30.262l35.274-75.732-35.274-75.82h30.262l20.262 43.335 20.24-43.335h30.284l-35.274 75.82 35.274 75.732zM177.74 123.828l-20.24-43.335-20.262 43.335h-30.262l35.274-75.732-35.274-75.82h30.262l20.262 43.335 20.24-43.335h30.284l-35.274 75.82 35.274 75.732zM252.296 123.828h-30.284v-151.552h101.049v30.284h-70.765zM789.526 123.828h-37.496l-46.341-105.821v-27.43h54.446v-18.301h29.413v18.301h12.201v29.173h-12.201v104.078h-0.022zM760.135 19.75h-25.034l25.012 60.133v-60.133zM879.289 123.828l-20.24-43.335-20.262 43.335h-30.262l35.274-75.732-35.274-75.82h30.262l20.262 43.335 20.24-43.335h30.284l-35.274 75.82 35.274 75.732zM953.823 2.56v121.268h-30.262v-151.552h101.049v30.284zM343.672 59.294h40.546v-23.857h-40.546v23.857zM397.138 59.294h40.546v-23.857h-40.546v23.857zM452.434 59.294h40.546v-23.857h-40.546v23.857zM547.382 59.294h-39.653v-23.813h39.653v-65.71l138.153 76.255-138.153 78.979z" />
<glyph unicode="&#xe615;" glyph-name="uniE615" d="M509.724 856.604c-22.471-58.311-107.662-274.489-108.373-275.2-0.996-0.996-13.653-1.707-77.084-4.693-8.96-0.427-22.471-0.996-29.867-1.422s-20.907-0.996-29.867-1.422c-8.96-0.427-22.044-0.996-29.156-1.422-6.969-0.284-20.764-0.996-30.578-1.422s-22.898-0.996-29.156-1.422c-6.258-0.284-20.338-0.996-31.289-1.422-24.604-1.138-37.973-1.991-38.684-2.56-0.142-0.284 2.276-2.418 5.689-4.836 3.271-2.418 10.809-8.107 16.64-12.658 17.493-13.511 27.307-21.049 34.987-27.022 3.982-2.987 19.627-15.076 34.844-26.88 15.218-11.662 31.573-24.32 36.551-28.018 16.498-12.8 41.671-32.142 55.040-42.382 4.693-3.698 11.804-9.102 15.787-12.231 30.151-23.182 36.124-28.018 36.124-29.44 0-0.853-17.067-63.004-37.831-138.098-20.764-75.236-38.969-140.942-40.391-146.204-1.422-5.404-2.276-9.671-1.991-9.671 0.427 0 41.244 27.164 90.596 60.16 49.493 33.138 105.671 70.827 125.156 83.769l35.271 23.609 125.156-83.911c68.836-46.080 125.44-83.627 125.724-83.342 0.284 0.142-17.778 65.991-39.964 146.204s-40.391 146.489-40.391 147.484c0 0.853 53.049 42.524 117.902 92.444s117.76 90.88 117.618 91.022c-0.569 0.569-17.636 1.707-39.253 2.56-11.378 0.427-24.747 1.138-29.867 1.422s-18.204 0.996-29.156 1.422c-10.951 0.427-24.747 1.138-30.578 1.422s-18.916 0.996-29.156 1.422c-10.098 0.427-23.609 1.138-29.867 1.422-6.258 0.427-19.342 0.996-29.156 1.422s-23.182 0.996-29.867 1.422c-6.684 0.284-20.053 0.996-29.867 1.564-9.813 0.427-18.204 1.28-18.773 1.707-0.711 0.853-43.804 110.222-106.098 269.511-1.991 5.262-4.124 9.529-4.551 9.529s-1.422-1.707-2.276-3.84z" />
<glyph unicode="&#xe616;" glyph-name="icn_menu" d="M0 853.333h1024v-128h-1024zM0 384h1024v128h-1024zM0 42.667h1024v128h-1024z" />
<glyph unicode="&#xe617;" glyph-name="uniE617" d="M435.467 9.194v701.084l-193.803-185.389c-29.785-28.538-78.358-28.449-108.054 0-29.785 28.538-29.785 75.064 0 103.379l324.163 310.361c13.846 13.178 32.857 21.37 53.96 21.37s40.203-8.192 54.094-21.37l324.029-310.361c29.785-28.494 29.785-75.064 0-103.379-29.651-28.449-78.358-28.538-108.143 0l-193.803 185.389v-701.128c0.134-40.248-34.193-73.149-76.132-73.149-41.984 0-76.31 32.902-76.31 73.194z" />
<glyph unicode="&#xe618;" glyph-name="icn_chevron_up" d="M512 608.341l-298.667-257.109 57.003-63.573 241.664 208.043 241.664-208.043 57.003 63.573-298.667 257.109z" />
<glyph unicode="&#xe619;" glyph-name="uniE619" d="M512 448c105.568 0 192 86.4 192 192v128c0 105.6-86.432 192-192 192-105.632 0-192-86.4-192-192v-128c0-105.6 86.368-192 192-192zM512 384c-211.264 0-384-172.8-384-384 0-35.2 28.736-64 64-64h640c35.136 0 64 28.8 64 64 0 211.2-172.864 384-384 384z" />
<glyph unicode="&#xe61a;" glyph-name="uniE61A" d="M650.182 447.972l345.413 345.356c38.025 38.025 37.911 100.129 0 138.097-38.025 38.025-100.3 38.082-138.325 0l-345.242-345.242-345.413 345.356c-37.911 37.911-100.186 37.968-138.154 0-37.968-38.025-37.968-100.243 0-138.211l345.413-345.356-345.413-345.242c-37.968-38.025-37.968-100.243 0-138.268 37.968-37.911 100.243-37.911 138.154 0l345.413 345.413 345.242-345.413c38.025-38.025 100.3-37.911 138.325 0 37.911 38.025 38.025 100.243 0 138.268l-345.413 345.242z" />
<glyph unicode="&#xe61b;" d="M754.586 819.917h64.717v-323.482h-64.717v323.482z" />
<glyph unicode="&#xe61c;" d="M344.883 604.16c0-59.523-48.253-107.776-107.776-107.776s-107.776 48.253-107.776 107.776v215.757h64.768v-215.757c0-23.739 19.244-42.982 42.982-42.982s42.982 19.244 42.982 42.982v215.757h64.794z" />
<glyph unicode="&#xe61d;" d="M646.656 76.058h-215.475v323.482h64.589v-258.714h150.886v-64.768z" />
<glyph unicode="&#xe61e;" d="M646.656 496.435h-64.691l-86.195 184.858v-184.858h-64.589v323.482h64.589l86.195-184.858v184.858h64.691v-323.482z" />
<glyph unicode="&#xe61f;" d="M237.184 399.539c-59.566 0-107.853-48.287-107.853-107.853 0-0.036 0-0.072 0-0.108v-107.745c0-59.523 48.253-107.776 107.776-107.776 0.018 0 0.036 0 0.054 0 0.182-0.001 0.4-0.002 0.618-0.002 7.176 0 14.192 0.681 20.989 1.981l21.296-66.671h64.794l-31.974 95.923c19.745 19.504 31.974 46.578 31.974 76.508 0 0.049 0 0.098 0 0.146v107.64c0 0.038 0 0.083 0 0.128 0 59.506-48.203 107.754-107.692 107.827zM280.064 183.859c0-23.739-19.244-42.982-42.982-42.982s-42.982 19.244-42.982 42.982v107.725c0 23.739 19.244 42.982 42.982 42.982s42.982-19.244 42.982-42.982z" />
<glyph unicode="&#xe620;" d="M786.944 399.539c-59.622 0-107.955-48.333-107.955-107.955v-107.75c0.935-58.832 48.847-106.166 107.814-106.166s106.879 47.333 107.813 106.078l0.001 107.838c0 0.023 0 0.050 0 0.077 0 59.508-48.182 107.762-107.662 107.878zM829.978 183.859c0-23.802-19.295-43.098-43.098-43.098s-43.098 19.295-43.098 43.098v107.725c0 23.802 19.295 43.098 43.098 43.098s43.098-19.295 43.098-43.098z" />
<glyph unicode="&#xe900;" glyph-name="icn_review_star_deselected2" d="M193.097-64l119.954 386.926-313.051 243.566h389.12l123.611 393.509 122.149-393.509h389.12l-312.32-243.566 119.223-386.926-318.171 239.177z" />
<glyph unicode="&#xe901;" glyph-name="icn_lter_size_deselected-54" d="M362.667-64h384v1024h-384c-46.933 0-85.333-38.4-85.333-85.333v-853.333c0-46.933 38.4-85.333 85.333-85.333zM362.667 874.667h298.667v-62.293h-65.707c-23.467 0-42.667-19.2-42.667-42.667s19.2-42.667 42.667-42.667h65.707v-75.52h-156.16c-23.467 0-42.667-19.2-42.667-42.667s19.2-42.667 42.667-42.667h156.16v-75.52h-65.707c-23.467 0-42.667-19.2-42.667-42.667s19.2-42.667 42.667-42.667h65.707v-75.52h-156.16c-23.467 0-42.667-19.2-42.667-42.667s19.2-42.667 42.667-42.667h156.16v-75.52h-65.707c-23.467 0-42.667-19.2-42.667-42.667s19.2-42.667 42.667-42.667h65.707v-62.293h-298.667v853.333z" />
<glyph unicode="&#xe902;" glyph-name="icn_lter_gender_deselected" d="M826.027 538.88c54.187 43.52 89.173 110.080 89.173 184.747-0.427 130.133-106.24 236.373-236.8 236.373s-236.373-106.24-236.373-236.373c0-74.667 34.987-141.227 88.747-184.32-23.893-11.52-46.080-25.6-66.56-42.24-34.133 49.067-90.453 81.493-154.88 81.493-103.68 0-188.16-84.48-188.16-188.16 0-52.053 21.333-98.987 55.040-133.12-103.68-49.493-176.213-155.733-176.213-278.613v-42.667h1024v290.987c0 137.813-81.067 256.427-197.973 311.893zM527.36 723.627c0 83.2 67.84 151.040 151.040 151.040s151.040-67.84 151.040-151.040c0-83.2-67.84-151.040-151.040-151.040s-151.040 67.413-151.040 151.040zM206.507 390.4c0 56.747 46.080 102.4 102.827 102.4s102.4-46.080 102.4-102.4c0-56.747-46.080-102.4-102.4-102.4-56.747 0-102.827 46.080-102.827 102.4zM89.6 21.333c20.053 102.827 110.933 180.907 219.733 180.907s199.68-78.080 219.733-180.907h-439.467zM938.24 21.333h-323.413c-14.507 104.533-81.067 192-173.227 235.947 34.133 34.133 55.040 81.067 55.040 133.12 0 7.253-0.427 14.080-1.28 21.333 46.933 46.507 111.36 75.52 182.187 75.52 143.36 0 259.84-116.48 259.84-259.84v-206.080z" />
<glyph unicode="&#xe903;" glyph-name="icn_lter_styles_deselected" d="M992.853 742.827c0 0-59.733 68.267-136.96 151.893-50.773 55.040-95.147 58.453-119.040 63.147-8.533 1.707-18.347 2.133-27.307 2.133-12.373 0-22.613-0.853-22.613-0.853s-35.413-82.347-100.693-84.053c0 0-2.133 0.427-4.693 0.427h-2.987c-3.413 0-5.547-0.427-5.547-0.427-65.28 1.707-100.693 84.053-100.693 84.053s-9.813 0.853-22.187 0.853c-8.96 0-18.773-0.427-27.307-2.133-23.893-4.693-67.84-8.107-119.040-63.147-77.227-83.2-136.96-151.893-136.96-151.893s-52.053-55.893-21.76-99.413c0.427-0.427 8.96-10.24 22.187-24.32h-112.64c-22.613 0-40.96-18.347-41.387-41.813l-13.227-597.76c-0.427-11.52 3.84-22.613 11.947-30.72 7.68-8.107 18.347-12.8 29.44-12.8h195.84c17.493 0 33.28 11.52 38.827 28.587l54.613 159.573 55.467-159.573c5.973-17.493 21.333-28.587 38.827-28.587h195.84c11.093 0 21.76 4.693 29.44 12.8s11.947 19.2 11.947 30.72l-3.413 155.307 201.813-0.427-0.427 340.48c19.2 20.907 153.173 166.4 154.453 168.533 30.293 43.52-21.76 99.413-21.76 99.413zM206.507 482.56v51.2h103.253v-51.2h-103.253zM95.147 533.76h69.973v-51.2h-71.253l1.28 51.2zM454.4 21.333l-84.907 244.053c-5.973 17.067-21.333 28.16-38.827 28.16v0c-17.493 0-32.853-11.52-38.827-28.587l-84.053-243.627h-124.16l9.387 418.56h476.16l9.387-418.56h-124.16zM351.147 482.56v51.2h89.6v-51.2h-89.6zM481.707 482.56v51.2h85.333l1.28-51.2h-86.613zM826.453 562.347l-49.493 50.773 1.28-103.253-0.427-0.427v-289.28l-120.747 0.427-7.68 357.12c-0.427 23.040-18.773 41.813-41.387 41.813h-326.827c-21.333 23.040-42.24 45.653-56.747 61.44 0.853 0.853 1.707 2.133 2.133 2.987v0l1.707 2.133c0.427 0.853 59.733 68.267 135.253 149.76 26.453 28.587 45.653 32.853 64.427 36.267 27.733-37.12 74.667-80.64 143.36-82.347l5.12-0.427 3.413 0.427 1.28-0.427h7.253c68.693 1.707 115.627 45.227 143.36 82.347 18.347-3.413 37.547-7.68 64.427-36.267 75.52-81.493 134.4-148.907 135.253-149.76v-0.427l1.28-1.28c0.853-0.853 1.707-2.133 2.56-3.413-26.88-29.013-76.8-83.627-108.8-118.187z" />
<glyph unicode="&#xe904;" glyph-name="icn_lter_price_deselected" d="M985.6 921.6c-8.533 8.533-21.76 8.533-30.293 0l-52.053-52.053-394.24-0.853c-38.827-0.427-50.347-0.427-64.427-14.507l-386.987-386.987c-33.707-33.707-33.707-88.747 0-122.453l351.147-351.147c17.067-17.067 38.827-25.173 61.013-25.173s44.373 8.533 61.013 25.173l386.987 386.987c10.667 10.667 12.8 29.867 14.507 55.467l1.28 403.627 52.053 52.053c8.533 8.107 8.533 21.76 0 29.867zM846.933 438.613c-0.427-3.84-0.427-6.827-0.853-9.387l-377.173-375.893-351.147 352.853 376.32 376.747c4.693 0 9.813 0 14.933 0l338.773 0.853-0.853-345.173zM449.28 564.48c-8.107 8.107-21.333 8.107-29.44 0s-8.107-21.333 0-29.44l65.28-65.28-36.267-36.267-65.28 65.28c-8.107 8.107-21.333 8.107-29.44 0s-8.107-21.333 0-29.44l65.28-65.28-83.2-83.2c-12.373-12.373-12.373-32 0-44.373s32.427-12.373 44.373 0l83.2 83.2 65.28-65.28c8.107-8.107 21.333-8.107 29.44 0s8.107 21.333 0 29.44l-65.28 65.28 36.267 36.267 65.28-65.28c8.107-8.107 21.333-8.107 29.44 0s8.107 21.333 0 29.44l-53.76 53.76 186.453 18.347c8.533 0.853 16.213 4.693 21.333 11.093 5.547 6.4 8.107 14.507 7.253 23.040s-4.693 16.213-11.093 21.333c-6.4 5.547-14.507 8.107-23.040 7.253l-186.88-18.347 18.347 186.88c1.28 17.067-11.52 32.427-29.013 33.707-8.533 0.853-16.64-2.133-23.040-7.253-6.4-5.547-10.24-13.227-11.093-21.333l-18.347-186.453-52.053 52.907z" />
<glyph unicode="&#xe905;" glyph-name="icn_lter_color_deselected" d="M680.96 344.747c4.267 40.96 41.387 70.827 82.347 66.133 40.96-4.267 70.827-41.387 66.133-82.347-4.267-40.96-41.387-70.827-82.347-66.133-40.96 4.267-70.4 41.387-66.133 82.347zM637.013 643.84c-4.267-40.96 25.173-78.080 66.133-82.347 40.96-4.693 77.653 25.173 82.347 66.133s-25.173 78.080-66.133 82.347c-41.387 4.267-78.080-25.173-82.347-66.133zM349.44 713.813c-4.267-40.96 25.173-77.653 66.133-82.347s77.653 25.173 82.347 66.133c4.693 40.96-25.173 78.080-66.133 82.347-40.96 4.693-77.653-24.747-82.347-66.133zM166.4 494.507c-4.693-40.96 25.173-77.653 66.133-82.347s78.080 25.173 82.347 66.133c4.267 40.96-25.173 78.080-66.133 82.347s-78.080-25.173-82.347-66.133zM512-64c277.76 0 512 239.787 512 523.947 0 275.627-229.547 500.053-512 500.053s-512-226.987-512-505.6v-78.933c0-70.4 57.6-128 128-128h283.733c24.747 0 43.093-8.533 49.067-23.893 5.973-13.653 1.28-31.147-12.373-45.227-6.4-6.4-14.933-13.227-24.32-20.053-31.573-23.467-79.787-59.307-67.413-132.267 6.4-33.28 34.133-90.027 155.307-90.027zM512 874.667c235.093 0 426.667-186.027 426.667-414.72 0-237.653-195.413-438.613-426.667-438.613-44.373 0-69.12 9.813-70.827 19.2-3.413 19.627 3.413 26.88 33.707 49.493 11.947 8.533 23.893 17.92 34.987 29.013 37.547 38.827 49.067 91.733 29.44 137.813-20.053 47.36-67.84 75.947-128 75.947h-283.307c-23.467 0-42.667 19.2-42.667 42.667v78.933c0 231.68 191.573 420.267 426.667 420.267z" />
<glyph unicode="&#xe906;" glyph-name="icn_lter_sort_deselected" d="M640 374.613l83.627-78.080v620.8h85.333v-620.8l87.893 78.080c8.533 8.107 19.627 11.947 30.293 11.947 11.947 0 23.893-4.693 32.853-14.080 16.64-18.347 15.787-46.507-2.133-63.147l-158.72-148.053c-1.707-1.707-3.84-2.133-5.547-3.413-2.56-1.707-5.12-3.84-8.533-5.12-2.56-0.853-5.12-1.28-7.68-1.707-2.987-0.427-5.973-1.28-8.533-1.28-2.987 0-5.547 0.853-8.533 1.28-2.56 0.427-5.547 0.853-8.107 1.707-2.987 1.28-5.547 3.413-8.107 5.12-1.707 1.28-3.84 1.707-5.547 3.413l-158.72 148.053c-17.92 16.64-19.2 45.227-2.133 63.147 8.96 9.387 20.48 14.080 32.853 14.080 9.813 0 20.907-4.267 29.44-11.947zM97.707 386.56c-11.947 0-23.893-4.693-32.853-14.080-16.64-18.347-15.787-46.507 2.133-63.147l158.72-148.053c1.707-1.707 3.84-2.133 5.547-3.413 2.56-1.707 5.12-3.84 8.107-5.12 2.56-1.28 5.12-1.28 8.107-1.707 2.987-0.853 5.973-1.707 8.96-1.707s5.973 0.853 8.533 1.28c2.56 0.427 5.12 0.853 7.68 1.707 2.987 1.28 5.547 3.413 8.533 5.12 1.707 1.28 3.84 1.707 5.547 3.413l158.72 148.053c17.92 16.64 19.2 45.227 2.133 63.147-8.96 9.387-20.907 14.080-32.853 14.080-10.667 0-21.76-3.84-30.293-11.947l-87.893-78.080v621.227h-85.333v-620.8l-83.2 78.080c-8.533 7.68-19.627 11.947-30.293 11.947zM42.667-21.333h938.667v85.333h-938.667v-85.333z" />
<glyph unicode="&#xe907;" glyph-name="icn_lter_size_deselected-44" horiz-adv-x="1365" d="M1325.227 690.773c0 0-76.373 84.907-175.36 188.16-65.28 68.267-122.027 72.533-152.32 78.080-11.093 2.56-23.893 2.987-35.413 2.987-16.213 0-29.013-1.28-29.013-1.28s-45.227-102.4-128.853-104.107l-5.973 0.427h-3.84c-4.267 0-7.253-0.427-7.253-0.427-83.627 2.133-128.853 104.107-128.853 104.107s-12.8 1.28-29.013 1.28c-11.093 0-23.893-0.427-34.987-2.56-30.293-5.973-87.040-10.24-152.32-78.507-98.987-103.253-175.36-188.16-175.36-188.16s-4.693-5.12-11.093-13.227c-23.467-4.267-58.88-12.8-98.987-54.613-72.107-75.093-127.573-136.96-127.573-136.96s-48.64-50.347-20.48-89.6c1.28-1.707 125.867-133.12 145.493-151.893v-306.347l281.6-0.427v-1.28l720.213-0.427-0.427 422.4c24.747 26.027 196.267 206.507 197.973 209.067 38.4 54.187-28.16 123.307-28.16 123.307zM619.52 297.813l-21.333-22.187v-260.693l-369.067 0.427 0.427 229.547v30.72l-21.333 22.187c-7.253 7.68-26.027 27.733-47.787 50.347-1.707 1.707-3.413 3.413-5.12 5.12-16.213 17.067-32.853 34.56-47.787 50.773-1.707 1.707-3.413 3.413-5.12 5.12-7.253 7.68-14.507 15.36-20.053 21.333 0.853 0.853 1.28 1.707 2.133 2.56v0l1.707 1.707c0.427 0.427 55.467 61.44 125.867 134.827 24.747 25.6 42.667 29.867 59.733 32.853 21.76-28.587 56.747-60.587 105.813-70.827 8.96-1.707 17.92-2.987 27.733-3.413l5.12-0.427 2.987 0.427h8.107c64 1.707 107.52 40.533 133.547 74.24 17.067-2.987 34.987-6.827 59.733-32.853 70.4-73.387 125.44-134.4 125.867-134.827v-0.427l1.28-1.28c0.853-0.853 1.707-1.707 2.56-2.987-2.133-2.133-5.12-5.547-7.253-7.68-2.987-2.987-5.973-6.4-8.96-9.813-4.267-4.267-8.107-8.533-12.8-13.653-4.267-4.267-8.533-8.96-12.8-13.227-2.56-2.987-5.12-5.547-8.107-8.533-8.107-8.533-16.213-17.067-23.893-25.173-1.707-1.707-3.413-3.413-5.12-5.547-6.4-6.827-12.373-12.8-17.92-18.773-1.28-1.707-2.987-3.413-4.267-4.693-10.667-11.093-19.627-20.48-23.893-25.173zM1144.747 459.093l-67.413 67.413 1.28-136.533-0.427-0.427v-30.72l0.427-345.6-403.627 0.427v231.253c17.92 18.773 142.507 150.187 143.787 151.893 28.16 39.253-20.48 89.6-20.48 89.6s-55.467 61.867-127.573 136.96c-47.36 49.493-88.747 52.48-110.933 56.747-8.107 1.707-17.067 2.133-25.6 2.133-11.52 0-20.907-0.853-20.907-0.853s-32.853-74.24-93.867-75.947c0 0-2.133 0.427-4.267 0.427h-2.56c-2.987 0-5.12-0.427-5.12-0.427-33.707 0.427-58.453 23.893-74.24 44.373 22.613 24.747 86.187 94.72 164.267 176.213 42.24 43.947 75.093 49.493 101.12 54.187 3.413 0.427 6.827 1.28 9.813 1.707l4.693 0.853c29.867-43.52 86.187-102.827 171.52-104.96l5.547-0.427 5.12 0.853 4.693-0.427h5.973c85.333 2.133 141.653 61.013 171.52 104.96l4.693-0.853c2.987-0.427 6.4-1.28 9.813-1.707 26.453-4.693 59.307-10.24 101.547-54.187 96.853-101.12 173.227-185.6 173.653-186.453l1.707-1.707c5.547-5.973 14.507-19.2 17.493-28.16-23.893-26.453-93.867-100.267-141.653-150.613z" />
<glyph unicode="&#xe908;" glyph-name="icn_view_single_column_deselected" d="M215.893 283.307v329.387h592.64v-329.387h-592.64zM808.107 700.16h-592.213c-48.213 0-87.893-39.253-87.893-87.467v-416.853h768v416.853c0 48.213-39.68 87.467-87.893 87.467z" />
<glyph unicode="&#xe909;" glyph-name="icn_view_list_deselected" d="M215.893 283.307v329.387h254.293v-329.387h-254.293zM558.080 700.16h-342.187c-48.213 0-87.893-39.253-87.893-87.467v-328.96c0-48.213 39.253-87.893 87.893-87.893h342.187v504.32zM896 612.693h-253.44v87.893h253.44v-87.893zM896 404.053h-253.44v87.893h253.44v-87.893zM896 195.84h-253.44v87.893h253.44v-87.893z" />
<glyph unicode="&#xe90a;" glyph-name="icn_view_grid_deselected" d="M808.107 700.16c48.213 0 87.893-39.253 87.893-87.467v-416.853h-768v416.853c0 48.213 39.68 87.467 87.893 87.467h592.213zM215.893 612.693v-328.96h252.16v328.96h-252.16zM555.947 283.307h252.16v329.387h-252.16v-329.387z" />
<glyph unicode="&#xe90b;" glyph-name="icn_lter_deselected" d="M713.813 438.613c-66.56 0-122.027-43.093-142.080-102.827-5.12 2.133-11.093 3.84-17.067 3.84h-512c-23.467 0-42.667-19.2-42.667-42.667s19.2-42.667 42.667-42.667h512c4.267 0 8.107 1.28 11.947 2.56 14.507-68.267 75.093-119.467 147.627-119.467 71.68 0 131.413 49.92 146.773 116.907h162.987v85.333h-168.96c-20.907 57.6-75.947 98.987-141.227 98.987zM713.813 222.72c-36.267 0-65.28 29.44-65.28 65.28 0 36.267 29.44 65.28 65.28 65.28 36.267 0 65.28-29.44 65.28-65.28 0.427-36.267-29.013-65.28-65.28-65.28zM482.133 638.293c-14.080 68.693-75.093 120.32-147.627 120.32-72.96 0-133.547-51.627-147.627-120.32h-144.213c-23.467 0-42.667-19.2-42.667-42.667s19.2-42.667 42.667-42.667h151.467c22.187-55.893 76.373-95.573 139.947-95.573s118.187 39.68 139.947 95.573h549.973v85.333h-541.867zM334.080 542.72c-35.84 0-65.28 29.013-65.28 65.28s29.44 65.28 65.28 65.28c36.267 0 65.28-29.44 65.28-65.28 0.427-36.267-29.013-65.28-65.28-65.28z" />
<glyph unicode="&#xe90c;" glyph-name="icn_pickup2" d="M463.787 100.267c-10.667 10.667-20.48 22.613-29.44 34.987h-313.6c-14.507 0-26.027 11.52-26.027 26.027v677.973c0 14.507 11.52 26.027 26.027 26.027h677.973c14.507 0 26.027-11.52 26.027-26.027v-313.173c12.373-8.96 23.893-18.347 34.987-29.44 5.973-5.973 11.947-12.373 17.067-18.773v361.387c0 43.093-34.987 78.080-78.080 78.080h-677.973c-43.093 0-78.080-34.987-78.080-78.080v-677.973c0-43.093 34.987-78.080 78.080-78.080h361.813c-6.4 5.12-12.8 11.093-18.773 17.067zM199.253 369.92h182.613v-52.053h-182.613v52.053zM199.253 682.667h521.387v-52.053h-521.387v52.053zM199.253 474.027h244.48c6.4 7.68 12.8 15.36 20.053 22.187 11.093 11.093 23.040 20.907 35.413 29.867h-299.947v-52.053zM848.213 167.253c26.88 37.973 41.813 83.627 41.813 130.987 0 61.013-23.893 118.187-66.987 161.28-88.747 88.747-233.387 88.747-322.56 0-43.093-43.093-66.987-100.267-66.987-161.28s23.893-118.187 66.987-161.28 100.267-66.987 161.28-66.987c47.787 0 93.013 14.507 130.987 41.387l121.6-122.027c7.68-7.68 17.493-11.52 27.733-11.52 9.813 0 20.053 3.84 27.733 11.52 15.36 15.36 15.36 40.107 0 55.467l-121.6 122.453zM555.947 192.427c-28.16 28.16-43.947 66.133-43.947 105.813 0 40.107 15.787 77.653 43.947 105.813 29.44 29.013 67.413 43.947 105.813 43.947s76.8-14.507 105.813-43.947c28.16-28.16 43.947-65.707 43.947-105.813s-15.787-77.653-43.947-105.813c-28.16-28.16-65.707-43.947-105.813-43.947s-77.653 15.787-105.813 43.947z" />
<glyph unicode="&#xe90d;" glyph-name="icn_like" d="M995.669 352.171c17.66 22.135 28.338 50.519 28.338 81.398 0 0.484-0.003 0.967-0.008 1.449 0.001 80.481-67.541 140.983-161.237 140.983h-214.784c12.145 41.827 23.217 93.603 30.911 146.473 7.361 67.628 9.323 158.721-24.81 197.036-19.514 24.835-49.549 40.639-83.276 40.639-1.969 0-3.926-0.054-5.869-0.16-80.796 0.012-106.738-89.844-130.972-163.402-8.533-25.6-71.381-220.075-86.656-239.659-10.88-10.795-52.267-44.459-78.507-66.261h-268.8v-554.667h784.341c3.972-0.379 8.588-0.595 13.255-0.595 79.726 0 144.733 63.017 147.93 141.958-0.374 13.632-1.91 26.374-4.504 38.727 16.554 19.324 26.401 45.8 26.401 74.577 0 0.094 0 0.187 0 0.281 0.056 1.492 0.089 3.262 0.089 5.039 0 8.996-0.824 17.8-2.401 26.34 21.739 22.358 34.995 53.618 34.995 87.974 0 0.155 0 0.31-0.001 0.465-0.313 14.828-1.913 29.104-4.697 42.953zM256 21.333h-171.051v384h171.051zM890.453 368.299c14.614-11.467 23.917-29.129 23.917-48.964 0-4.969-0.584-9.802-1.687-14.434-1.781-26.114-19.665-48.024-43.881-55.815 11.803-11.204 19.47-27.158 19.47-44.903 0-7.116-1.233-13.944-3.497-20.283-4.338-23.336-20.746-42.432-42.497-50.625 12.635-9.948 21.024-25.42 21.024-42.851 0-6.415-1.136-12.564-3.218-18.258-5.215-25.231-23.477-51.044-77.919-51.044h-440.832v417.408c28.843 22.144 59.349 50.176 71.339 61.739 25.198 42.821 46.25 92.313 60.598 144.579 38.73 124.349 58.485 235.453 95.221 235.453 53.12 0 38.4-77.184 31.744-140.373-16.654-95.99-38.611-179.809-66.747-260.736l339.089 11.478c1.918 0.217 4.14 0.341 6.392 0.341 32.481 0 58.946-25.76 60.080-57.965 0.029-0.783 0.043-1.58 0.043-2.381 0-29.949-20.476-55.115-48.192-62.265z" />
<glyph unicode="&#xe90e;" glyph-name="icn_help_small2" d="M512 789.333c-188.587 0-341.333-152.747-341.333-341.333s152.747-341.333 341.333-341.333 341.333 152.747 341.333 341.333-152.747 341.333-341.333 341.333zM512 192c-141.227 0-256 114.773-256 256s114.773 256 256 256 256-114.773 256-256-114.773-256-256-256zM513.28 311.040c19.2 0 34.56-15.36 34.56-34.56s-15.36-34.56-34.56-34.56-34.56 15.36-34.56 34.56c0 19.2 15.787 34.56 34.56 34.56zM512 642.987c62.72 0 112.213-47.36 112.213-108.373 0-24.32-8.533-52.48-19.627-66.133-8.533-11.947-35.84-29.013-54.187-55.893-2.56-6.827-5.12-14.507-5.12-41.813v-4.267c0-19.627-14.507-34.56-32.853-34.56-17.493 0-32 13.653-32.853 31.147v1.707c0 42.24 0 59.733 13.653 78.080l54.187 61.44c7.253 9.813 11.093 20.053 11.093 30.293 0 25.6-17.92 42.24-46.080 42.24-26.88 0-44.8-17.067-46.080-43.52l-0.427-2.56c-0.853-17.92-14.933-31.573-32.853-31.573-18.347 0-32.853 14.933-32.853 33.28v2.133c2.56 64 48.64 108.373 111.787 108.373z" />
<glyph unicode="&#xe90f;" glyph-name="icn_size_chart2" d="M0 597.333v-384h1024v384c0 46.933-38.4 85.333-85.333 85.333h-853.333c-46.933 0-85.333-38.4-85.333-85.333zM938.667 597.333v-298.667h-62.293v65.707c0 23.467-19.2 42.667-42.667 42.667s-42.667-19.2-42.667-42.667v-65.707h-75.52v156.16c0 23.467-19.2 42.667-42.667 42.667s-42.667-19.2-42.667-42.667v-156.16h-75.52v65.707c0 23.467-19.2 42.667-42.667 42.667s-42.667-19.2-42.667-42.667v-65.707h-75.52v156.16c0 23.467-19.2 42.667-42.667 42.667s-42.667-19.2-42.667-42.667v-156.16h-75.52v65.707c0 23.467-19.2 42.667-42.667 42.667s-42.667-19.2-42.667-42.667v-65.707h-62.293v298.667h853.333z" />
<glyph unicode="&#xe910;" glyph-name="icn_favorite_small_selected2" d="M512 118.187l-49.92 45.227c-119.893 107.947-243.627 219.733-278.613 331.52-38.4 123.733 11.093 239.36 117.76 274.347 84.48 28.16 162.56-15.36 210.773-81.493 48.213 66.56 126.293 109.653 211.2 81.493 106.667-34.987 155.733-150.613 117.333-274.773-34.987-111.787-158.72-223.147-278.613-331.52l-49.92-44.8z" />
<glyph unicode="&#xe911;" glyph-name="icn_favorite_small_deselected2" d="M627.2 222.72c-21.76-20.053-43.52-39.68-65.28-59.733l-49.92-44.8-49.92 45.227c-119.893 107.947-243.627 219.733-278.613 331.52-38.4 123.733 11.093 239.36 117.76 274.347 84.48 28.16 162.56-15.36 210.773-81.493 48.213 66.56 126.293 109.653 211.2 81.493 106.667-34.987 155.733-150.613 117.333-274.773-2.133-6.4-5.12-12.8-7.68-18.773l-52.053 56.32c18.773 81.493-11.52 151.893-78.507 173.653-75.947 25.173-136.533-45.227-159.147-98.987l-31.147-73.813-30.72 73.813c-19.2 46.080-66.56 104.107-127.573 104.107-10.24 0-20.907-1.707-31.573-5.12-71.68-23.467-101.973-102.4-74.24-191.147 29.44-93.867 151.467-204.373 259.413-301.653l4.693-4.267 4.693 4.267c21.333 19.2 43.093 38.827 64.427 58.88l46.080-49.067zM681.813 242.347c0-4.267 2.133-6.4 6.4-6.4h51.2c4.267 0 6.4 2.133 6.4 6.4v97.707c0 2.56 1.28 3.84 3.84 3.84h96.853c4.267 0 6.4 2.133 6.4 6.4v49.493c0 4.267-2.133 6.4-6.4 6.4h-96.853c-2.56 0-3.84 1.28-3.84 3.84v97.707c0 4.267-2.133 6.4-6.4 6.4h-51.2c-4.267 0-6.4-2.133-6.4-6.4v-97.707c0-2.56-1.28-3.84-3.84-3.84h-96.853c-4.267 0-6.4-2.133-6.4-6.4v-49.493c0-4.267 2.133-6.4 6.4-6.4h96.853c2.56 0 3.84-1.28 3.84-3.84v-97.707z" />
<glyph unicode="&#xe912;" glyph-name="icn_favorite_large_selected2" d="M512-5.547l-68.267 61.867c-164.693 148.48-334.933 302.080-383.147 455.68-53.333 170.667 14.507 329.387 161.28 378.027 116.907 38.4 224-20.907 290.133-112.213 66.56 91.307 173.653 150.613 290.133 112.213 146.773-48.64 214.187-207.36 161.28-377.6-47.787-153.6-218.027-307.2-382.72-455.68l-68.693-62.293z" />
<glyph unicode="&#xe913;" glyph-name="icn_favorite_large_deselected2" d="M670.293 138.24c-29.44-27.307-59.733-54.613-89.6-81.92l-68.693-61.867-68.267 61.867c-165.12 148.48-334.933 302.080-383.147 455.68-53.333 170.667 14.507 329.387 161.28 378.027 116.907 38.4 224-20.907 290.133-112.213 66.56 91.307 173.653 150.613 290.133 112.213 146.773-48.64 214.187-207.36 161.28-377.6-2.56-8.533-7.253-17.493-10.667-26.027l-71.68 76.8c26.027 112.213-15.787 208.64-107.947 238.933-104.107 34.56-187.733-62.293-218.88-135.68l-42.667-101.547-42.667 101.547c-25.6 62.72-90.88 142.933-174.507 142.933-14.080 0-28.587-2.133-43.52-7.253-98.133-32.427-140.373-140.373-101.973-262.827 40.533-129.28 208.213-280.747 356.693-414.72l6.4-5.973 6.827 5.973c29.013 26.453 58.88 53.333 88.747 81.067l62.72-67.413zM745.387 165.12c0-5.973 2.987-8.533 8.533-8.533h70.4c5.973 0 8.96 2.987 8.96 8.533v133.973c0 3.413 1.707 5.12 5.12 5.12h133.12c5.973 0 8.96 2.987 8.96 8.533v67.84c0 5.973-2.987 8.533-8.96 8.533h-133.12c-3.413 0-5.12 1.707-5.12 5.12v134.827c0 5.973-2.987 8.533-8.96 8.533h-70.4c-5.973 0-8.533-2.987-8.533-8.533v-133.973c0-3.413-1.707-5.12-5.12-5.12h-133.12c-5.973 0-8.533-2.987-8.533-8.533v-67.84c0-5.547 2.987-8.533 8.533-8.533h133.12c3.413 0 5.12-1.707 5.12-5.12v-134.827z" />
<glyph unicode="&#xe914;" glyph-name="icn_gift2" d="M701.44 675.413c0 63.147-50.773 113.92-113.92 113.92-28.587 0-55.040-11.52-75.52-29.44-20.48 17.92-46.933 29.44-75.947 29.44-62.72 0-113.493-50.773-113.493-113.92 0-13.653 2.133-25.6 6.827-37.973h-158.72v-227.413h37.973v-303.36h606.72v303.36h37.973v227.413h-158.72c4.693 12.373 6.827 24.32 6.827 37.973zM474.027 182.613h-189.44v227.413h189.44v-227.413zM474.027 485.973h-227.413v75.947h227.413v-75.947zM474.027 637.44h-37.973c-21.333 0-37.973 16.64-37.973 37.973s16.64 37.973 37.973 37.973c21.333 0 37.973-16.64 37.973-37.973v-37.973zM549.973 675.413c0 21.333 16.64 37.973 37.973 37.973s37.973-16.64 37.973-37.973c0-21.333-16.64-37.973-37.973-37.973h-37.973v37.973zM739.413 182.613h-189.44v227.413h189.44v-227.413zM777.387 485.973h-227.413v75.947h227.413v-75.947z" />
<glyph unicode="&#xe915;" glyph-name="icn_arrow_back2" d="M386.133 142.933c22.613-22.613 59.307-22.613 81.92 0s22.613 59.733 0 82.347l-163.84 164.693h555.947c32 0 57.6 26.027 57.6 58.027s-26.027 58.027-57.6 58.027h-556.373l163.84 164.693c22.613 22.613 22.613 59.733 0 82.347-11.093 11.52-26.027 17.067-40.96 17.067s-29.44-5.547-40.96-17.067l-262.4-264.107c-22.613-22.613-22.613-59.733 0-82.347l262.827-263.68z" />
<glyph unicode="&#xe916;" glyph-name="icn_dropdown2" d="M204.8 601.6l307.2-307.2 307.2 307.2z" />
<glyph unicode="&#xe917;" d="M1024 448c0-282.77-229.23-512-512-512s-512 229.23-512 512c0 282.77 229.23 512 512 512s512-229.23 512-512z" />
<glyph unicode="&#xe918;" glyph-name="uniE918" d="M738.987 564.053l-55.040 54.613-222.72-222.72-90.027 90.027-54.613-55.040 144.213-144.213h0.427z" />
<glyph unicode="&#xe919;" glyph-name="icn_gu" d="M0 960v-1024h1024v1024h-1024zM299.886 224.914c-124.343 0-226.743 98.743-226.743 223.086s98.743 223.086 223.086 223.086c84.114 0 153.6-43.886 193.829-109.714h-95.086c-25.6 21.943-62.171 36.571-98.743 36.571-84.114 0-149.943-65.829-149.943-149.943s65.829-149.943 149.943-149.943c69.486 0 128 47.543 142.629 113.371h-138.971v73.143h219.429c3.657-10.971 3.657-25.6 3.657-36.571 0-124.343-102.4-223.086-223.086-223.086zM950.857 400.457c0-98.743-80.457-175.543-175.543-175.543s-175.543 80.457-175.543 175.543v241.371h73.143v-241.371c0-54.857 47.543-102.4 102.4-102.4s102.4 47.543 102.4 102.4v241.371h73.143v-241.371z" />
<glyph unicode="&#xe91a;" glyph-name="icn_uniqlo" horiz-adv-x="2304" d="M1518.080 335.36c-23.040 0-43.52-20.48-43.52-43.52v-107.52c0-23.040 20.48-43.52 43.52-43.52s43.52 20.48 43.52 43.52v107.52c-2.56 23.040-20.48 43.52-43.52 43.52zM2065.92 335.36c-23.040 0-43.52-20.48-43.52-43.52v-107.52c0-23.040 20.48-43.52 43.52-43.52s43.52 20.48 43.52 43.52v107.52c0 23.040-17.92 43.52-43.52 43.52zM1280 960v-1024h1024v1024h-1024zM2035.2 819.2h64v-322.56h-64v322.56zM1625.6 184.32c0-30.72-12.8-56.32-33.28-76.8l33.28-97.28h-64l-23.040 66.56c-7.68-2.56-12.8-2.56-20.48-2.56-58.88 0-107.52 48.64-107.52 107.52v107.52c0 58.88 48.64 107.52 107.52 107.52s107.52-48.64 107.52-107.52v-104.96zM1625.6 604.16c0-58.88-48.64-107.52-107.52-107.52s-110.080 48.64-110.080 107.52v215.040h64v-215.040c0-23.040 20.48-43.52 43.52-43.52s43.52 20.48 43.52 43.52v215.040h64v-215.040zM1927.68 76.8h-215.040v322.56h64v-258.56h151.040v-64zM1927.68 496.64h-64l-87.040 184.32v-184.32h-64v322.56h64l87.040-184.32v184.32h64v-322.56zM2176 184.32c0-58.88-48.64-107.52-107.52-107.52s-107.52 48.64-107.52 107.52v107.52c0 58.88 48.64 107.52 107.52 107.52s107.52-48.64 107.52-107.52v-107.52zM647.68 325.12h161.28v-184.32h-161.28v184.32zM0 960v-1024h1024v1024h-1024zM614.4 819.2h225.28v-64h-225.28v64zM376.32 76.8h-258.56l12.8 64h194.56l38.4 184.32h-128l-20.48-92.16h-64l33.28 156.16h258.56l-66.56-312.32zM442.88 506.88h-291.84v64h161.28v184.32h-128v64h194.56v-248.32h64v-64zM872.96 76.8h-291.84v312.32h291.84v-312.32zM872.96 506.88h-291.84v64h291.84v-64z" />
<glyph unicode="&#xe91b;" glyph-name="icn_cart2" d="M36.48 864h213.12v-126.080l774.4-49.92-120.96-363.52h-690.56c-26.88 0-48.64-21.76-48.64-48.64s21.76-48.64 48.64-48.64h554.24c2.56 0 5.12 0 7.68-0.64 50.56-3.84 90.24-45.44 90.24-96.64 0-53.76-43.52-97.28-97.28-97.28s-97.28 43.52-97.28 97.28c0 8.32 1.28 16.64 3.2 24.32h-310.4c1.92-7.68 3.2-16 3.2-24.32 0-53.76-43.52-97.28-97.28-97.28s-97.28 43.52-97.28 97.28c0 10.88 1.92 21.12 5.12 30.72-49.28 15.36-85.76 61.44-85.76 115.84s35.84 99.84 85.12 115.84v398.72h-139.52c-19.84 0-36.48 16-36.48 36.48 0 19.84 16.64 36.48 36.48 36.48z" />
<glyph unicode="&#xe91c;" glyph-name="uniE91C" d="M0-64h1024v1024h-1024v-1024z" />
<glyph unicode="&#xe91d;" glyph-name="uniE91D" d="M476.672 276.48v0h-0.512l-173.056 173.056 65.536 66.048 108.032-108.032 216.064 216.064 66.048-65.536z" />
<glyph unicode="&#xe91e;" glyph-name="icn_checkbox_disabled2" d="M921.6 38.4h-819.2v819.2h819.2v-819.2zM1024 960h-1024v-1024h1024v1024z" />
<glyph unicode="&#xe91f;" glyph-name="uniE91F" d="M921.6 38.4h-819.2v819.2h819.2v-819.2zM1024 960h-1024v-1024h1024v1024z" />
<glyph unicode="&#xe920;" glyph-name="uniE920" d="M758.784 558.080l-66.048 65.536-216.064-216.576-108.032 108.032-65.536-65.536 173.056-173.056h0.512z" />
<glyph unicode="&#xe921;" glyph-name="icn_radio_disabled2" d="M512 857.6c223.744 0 407.552-182.272 409.6-406.016 1.024-109.568-40.448-212.48-117.248-290.816s-179.2-121.856-288.768-122.88h-3.584c-223.744 0-407.552 181.76-409.6 406.016-1.024 109.568 40.448 212.992 117.248 290.816s179.2 121.856 288.768 122.88h3.584zM512 960c-1.536 0-3.072 0-4.608 0-282.624-2.56-509.952-233.984-507.392-516.608 2.56-281.088 231.424-507.392 512-507.392 1.536 0 3.072 0 4.608 0 282.624 2.56 509.952 233.984 507.392 516.608-2.56 281.088-231.424 507.392-512 507.392z" />
<glyph unicode="&#xe922;" glyph-name="icn_account2" d="M737.707 350.72c-23.467 24.747-52.907 44.373-87.040 58.453 41.387 34.987 70.4 85.333 75.947 143.787 11.52 118.613-75.093 224-193.707 235.52-7.253 0.427-14.080 0.853-21.333 0.853-109.653 0-203.52-83.2-214.187-194.987-7.253-73.387 23.467-141.653 75.947-186.027-33.707-14.080-62.72-33.28-85.76-57.6-51.2-53.333-74.24-125.44-74.24-201.387v-42.667h597.333v42.667c0 75.52-21.76 147.627-72.96 201.387zM511.573 704c4.267 0 8.533-0.427 12.8-0.427 34.56-3.413 65.707-20.053 87.893-46.933s32.427-60.587 29.013-95.147c-6.4-66.987-62.293-117.76-129.28-117.76-4.267 0-8.533 0.427-12.8 0.853-34.56 3.413-65.707 20.053-87.893 46.933s-32.427 60.587-29.013 95.147c6.4 66.56 62.293 117.333 129.28 117.333zM302.080 192c6.4 40.107 22.613 73.813 46.933 99.84 33.28 34.133 84.053 57.173 162.987 57.6 81.067-0.427 131.413-23.467 163.84-57.6 24.32-25.6 39.68-59.307 46.080-99.84h-419.84z" />
<glyph unicode="&#xe923;" glyph-name="float_circle" d="M1024 448c0-282.77-229.23-512-512-512s-512 229.23-512 512c0 282.77 229.23 512 512 512s512-229.23 512-512z" />
<glyph unicode="&#xe926;" d="M787.84 590.763l-53.845 53.888-282.539-282.539-151.68 151.68-53.803-53.845 205.312-205.312 0.171 0.171 0.213-0.171 336.171 336.128z" />
<glyph unicode="&#xe927;" d="M189.477 1.39v264.814h-77.056v66.085h220.599v-66.085h-77.019v-264.814z" />
<glyph unicode="&#xe928;" d="M503.15-1.829c-60.774 0.371-109.944 49.528-110.336 110.262v117.066c0 60.917 49.383 110.299 110.299 110.299s110.299-49.383 110.299-110.299v-117.029c-0.021-60.895-49.37-110.258-110.259-110.299zM503.15 64.256c24.369 0.124 44.091 19.846 44.215 44.203v117.040c0 24.419-19.796 44.215-44.215 44.215s-44.215-19.796-44.215-44.215v-117.029c0-0.011 0-0.024 0-0.037 0-24.463 19.769-44.309 44.203-44.434z" />
<glyph unicode="&#xe929;" d="M911.579 221.989c0-0.022 0-0.047 0-0.073 0-60.944-49.395-110.352-110.334-110.373h-44.217v-110.299h-66.048v331.045h110.299c0.174 0.001 0.38 0.002 0.587 0.002 60.594 0 109.714-49.121 109.714-109.714 0-0.206-0.001-0.412-0.002-0.618zM801.243 177.774c24.419 0 44.215 19.796 44.215 44.215s-19.796 44.215-44.215 44.215h-44.215v-88.43z" />
<glyph unicode="&#xe92a;" d="M494.19 897.938l256-220.379-48.896-54.455-207.104 178.286-207.141-178.286-48.859 54.455 256 220.379z" />
<glyph unicode="&#xe92b;" glyph-name="icn_cart" d="M36.544 864h213.056v-126.144l774.4-49.856-121.024-363.456h-690.176c-26.934 0-48.768-21.834-48.768-48.768s21.834-48.768 48.768-48.768h554.176c2.61-0.008 5.151-0.288 7.601-0.811 51.358-3.388 91.912-46.082 91.912-98.248 0-54.398-44.098-98.496-98.496-98.496s-98.496 44.098-98.496 98.496c0 9.124 1.241 17.959 3.562 26.344l-310.244-0.692c2.175-7.683 3.426-16.507 3.426-25.622 0-53.868-43.668-97.536-97.536-97.536s-97.536 43.668-97.536 97.536c0 11.472 1.98 22.481 5.618 32.704-50.224 14.963-85.884 60.873-85.884 115.111 0 54.121 35.506 99.949 84.495 115.46l0.858 399.594h-139.712c-20.2 0-36.576 16.376-36.576 36.576s16.376 36.576 36.576 36.576z" />
<glyph unicode="&#xe92c;" glyph-name="icn_check_large" d="M1003.584 779.84c-12.698 12.5-30.136 20.219-49.376 20.219s-36.678-7.718-49.385-20.228l-518.071-516.919-69.824 69.888-197.76 196.608c-12.654 12.572-30.091 20.343-49.344 20.343s-36.69-7.771-49.348-20.347c-12.616-12.533-20.428-29.896-20.428-49.084s7.811-36.552 20.428-49.084l316.932-315.076c12.695-12.482 30.12-20.187 49.344-20.187s36.649 7.706 49.354 20.197l567.478 565.558c12.62 12.536 20.432 29.9 20.432 49.088s-7.811 36.552-20.428 49.084z" />
<glyph unicode="&#xe92f;" d="M0-64h1024v1024h-1024z" />
<glyph unicode="&#xe930;" d="M476.877 276.326l-0.256 0.256-0.205-0.256-173.466 173.414 65.638 65.638 108.032-108.032 216.32 216.32 65.638-65.638-281.702-281.702z" />
<glyph unicode="&#xe936;" glyph-name="icn_chevron_tiny_left" d="M384 448l205.261 238.438 50.739-45.517-166.093-192.922 166.093-192.922-50.739-45.517-205.261 238.438z" />
<glyph unicode="&#xe937;" glyph-name="icn_chevron_tiny_right" d="M640 448l-205.261-238.438-50.739 45.517 166.093 192.922-166.093 192.922 50.739 45.517 205.261-238.438z" />
<glyph unicode="&#xe939;" glyph-name="icn_close" d="M837.291 832l-325.291-325.333-325.333 325.333-58.667-58.709 325.291-325.291-325.291-325.333 58.667-58.667 325.333 325.291 325.291-325.291 58.709 58.667-325.333 325.333 325.333 325.291-58.709 58.709z" />
<glyph unicode="&#xe93a;" glyph-name="icn_comments" d="M938.667 874.667h-853.333c-47.128 0-85.333-38.205-85.333-85.333v-496c0-47.128 38.205-85.333 85.333-85.333h501.675l263.68-186.667v186.667h87.979c47.128 0 85.333 38.205 85.333 85.333v496c0 47.128-38.205 85.333-85.333 85.333zM938.667 293.333h-173.312v-107.051l-151.168 107.051h-528.853v496h853.333zM576 540.16c0-35.346-28.654-64-64-64s-64 28.654-64 64c0 35.346 28.654 64 64 64s64-28.654 64-64zM789.333 540.16c0-35.346-28.654-64-64-64s-64 28.654-64 64c0 35.346 28.654 64 64 64s64-28.654 64-64zM362.667 540.16c0-35.346-28.654-64-64-64s-64 28.654-64 64c0 35.346 28.654 64 64 64s64-28.654 64-64z" />
<glyph unicode="&#xe946;" glyph-name="icn_filter_deselected" d="M663.488 441.088c-49.407-0.109-91.339-31.992-106.453-76.295-3.999 0.926-8.396 1.937-13.027 1.959h-384.008c-17.673 0-32-14.327-32-32s14.327-32 32-32h384c3.237 0.169 6.272 0.812 9.109 1.861 10.938-51.636 56.166-89.708 110.287-89.708 53.476 0 98.27 37.17 109.957 87.083l122.647 0.764v64h-126.656c-16.172 43.673-57.432 74.255-105.846 74.336zM663.488 278.912c-27.111 0-49.088 21.977-49.088 49.088s21.977 49.088 49.088 49.088c27.111 0 49.088-21.977 49.088-49.088-0.036-27.096-21.992-49.052-49.085-49.088zM489.6 590.752c-10.992 51.897-56.422 90.279-110.816 90.279s-99.824-38.381-110.684-89.539l-108.1-0.74c-17.673 0-32-14.327-32-32s14.327-32 32-32h113.6c16.837-42.403 57.509-71.838 105.056-71.838s88.219 29.435 104.789 71.076l412.555 0.762v64zM378.784 518.912c-27.111 0-49.088 21.977-49.088 49.088s21.977 49.088 49.088 49.088c27.111 0 49.088-21.977 49.088-49.088-0.036-27.118-22.029-49.088-49.152-49.088-0.023 0-0.045 0-0.068 0z" />
<glyph unicode="&#xe94b;" d="M663.488 441.088c-49.407-0.109-91.339-31.992-106.453-76.295-3.999 0.926-8.396 1.937-13.027 1.959h-384.008c-17.673 0-32-14.327-32-32s14.327-32 32-32h384c3.237 0.169 6.272 0.812 9.109 1.861 10.938-51.636 56.166-89.708 110.287-89.708 53.476 0 98.27 37.17 109.957 87.083l122.647 0.764v64h-126.656c-16.172 43.673-57.432 74.255-105.846 74.336zM663.488 278.912c-27.111 0-49.088 21.977-49.088 49.088s21.977 49.088 49.088 49.088c27.111 0 49.088-21.977 49.088-49.088-0.036-27.096-21.992-49.052-49.085-49.088zM489.6 590.752c-10.992 51.897-56.422 90.279-110.816 90.279s-99.824-38.381-110.684-89.539l-108.1-0.74c-17.673 0-32-14.327-32-32s14.327-32 32-32h113.6c16.837-42.403 57.509-71.838 105.056-71.838s88.219 29.435 104.789 71.076l412.555 0.762v64zM378.784 518.912c-27.111 0-49.088 21.977-49.088 49.088s21.977 49.088 49.088 49.088c27.111 0 49.088-21.977 49.088-49.088-0.036-27.118-22.029-49.088-49.152-49.088-0.023 0-0.045 0-0.068 0z" />
<glyph unicode="&#xe94c;" d="M1024 736c0-123.712-100.288-224-224-224s-224 100.288-224 224c0 123.712 100.288 224 224 224s224-100.288 224-224z" />
<glyph unicode="&#xe94d;" d="M938.752 795.712l-34.752 32.768-133.568-141.696-57.216 53.952-32.768-34.752 91.872-86.592 0.096 0.128 0.128-0.128 166.208 176.32z" />
<glyph unicode="&#xe954;" d="M0 960h1024v-1024h-1024v1024z" />
<glyph unicode="&#xe955;" d="M453.734 159.053v252.826h-86.17v95.411h86.195v74.931c0 84.352 51.2 133.658 126.387 133.658 0.013 0 0.028 0 0.043 0 27.36 0 54.35-1.581 80.885-4.657l-3.232-90.601h-55.706c-40.96 0-48.64-20.301-48.64-48.845v-64.512h99.302l-12.8-95.386h-86.451v-252.826z" />
<glyph unicode="&#xe956;" d="M0 960h1024v-1024h-1024v1024z" />
<glyph unicode="&#xe957;" d="M231.629 457.165c-0.15-2.737-0.235-5.94-0.235-9.163 0-75.265 46.54-139.66 112.413-165.977 20.528-8.352 42.956-12.953 66.459-12.953 55.676 0 105.321 25.822 137.612 66.144 21.442 32.058 34.057 71.049 34.057 112.986 0 8.953-0.575 17.771-1.69 26.421-56.827-0.588-113.684-0.69-170.542-0.844 0-20.275 0-40.576 0-60.851 34.022-1.101 68.096-0.589 102.118-1.101-15.002-75.443-117.76-99.84-171.93-50.637-24.73 21.098-40.309 52.29-40.309 87.121 0 37.025 17.604 69.939 44.898 90.827 18.968 13.259 42.17 21.065 67.195 21.065 27.208 0 52.261-9.227 72.2-24.723 15.593 15.047 30.371 30.335 44.36 46.331-30.897 28.132-72.359 44.827-117.72 44.827-0.322 0-0.643-0.001-0.965-0.003 0.033 0 0.013 0-0.007 0-95.332 0-173.173-74.891-177.898-169.050zM691.2 525.030q-0.256-25.446-0.435-50.97-25.6 0-50.97-0.333v-50.714l50.97-0.512c0.179-16.973 0.179-33.92 0.333-50.893h50.816q0 25.446 0.333 50.97c17.050 0.179 34.022 0.256 50.97 0.435v50.586c-16.973 0.179-34.022 0.179-50.97 0.333-0.179 16.973-0.256 34.022-0.333 50.97z" />
<glyph unicode="&#xe958;" d="M231.629 457.165c4.742 94.581 82.582 169.472 177.915 169.472 0.020 0 0.040 0 0.060 0 0.27 0.001 0.593 0.002 0.916 0.002 45.348 0 86.798-16.684 118.548-44.249-14.847-16.548-29.624-31.837-45.131-46.357-20.026 14.969-45.079 24.197-72.287 24.197-25.025 0-48.227-7.806-67.304-21.116-27.186-20.837-44.79-53.751-44.79-90.776 0-34.831 15.579-66.024 40.15-86.989 54.457-49.412 157.087-24.939 172.089 50.504-34.022 0.512-68.096 0-102.118 1.101 0 20.275-0.179 40.576 0 60.851 56.858 0.179 113.715 0.256 170.65-0.179 1.003-7.61 1.575-16.41 1.575-25.344 0-41.949-12.622-80.951-34.275-113.413-32.092-39.937-81.745-65.769-137.432-65.769-23.476 0-45.88 4.591-66.363 12.924-65.899 26.317-112.439 90.712-112.439 165.977 0 3.223 0.085 6.426 0.254 9.608z" />
<glyph unicode="&#xe959;" d="M691.2 525.030h50.714c0-16.973 0.179-34.022 0.333-50.97 16.973-0.179 34.022-0.179 50.97-0.333v-50.714c-16.973-0.179-33.92-0.256-50.97-0.435q-0.256-25.6-0.333-50.97h-50.714c-0.179 16.973-0.179 33.92-0.333 50.893l-50.97 0.512v50.586q25.446 0.256 50.97 0.333 0.102 25.702 0.333 51.098z" />
<glyph unicode="&#xe95a;" d="M0 960h1024v-1024h-1024v1024z" />
<glyph unicode="&#xe95b;" d="M512 678.861c75.187 0 84.096-0.282 113.792-1.638 18.829-0.227 36.765-3.765 53.344-10.058 23.565-9.33 42.698-28.463 52.164-52.464 6.157-16.143 9.696-34.079 9.921-52.811 1.358-29.793 1.639-38.701 1.639-113.889s-0.282-84.096-1.638-113.792c-0.226-18.829-3.765-36.764-10.058-53.343-9.33-23.566-28.463-42.698-52.464-52.165-16.143-6.157-34.079-9.696-52.811-9.921-29.793-1.358-38.701-1.639-113.889-1.639s-84.096 0.282-113.792 1.638c-18.829 0.227-36.765 3.765-53.344 10.058-23.565 9.33-42.698 28.463-52.164 52.464-6.157 16.143-9.696 34.079-9.921 52.811-1.358 29.792-1.639 38.701-1.639 113.888s0.282 84.096 1.638 113.792c0.227 18.829 3.765 36.765 10.058 53.344 9.33 23.565 28.463 42.698 52.464 52.164 16.143 6.157 34.079 9.696 52.811 9.921 29.793 1.358 38.701 1.639 113.889 1.639zM512 729.6c-76.467 0-86.067-0.333-116.096-1.69-24.684-0.519-48.103-5.282-69.769-13.584-36.537-14.446-66.015-43.924-80.599-80.904-8.164-21.224-12.926-44.642-13.442-69.106-1.36-30.25-1.693-39.85-1.693-116.317s0.333-86.067 1.69-116.096c0.519-24.684 5.282-48.103 13.584-69.769 14.446-36.537 43.924-66.015 80.904-80.599 21.224-8.164 44.642-12.926 69.106-13.442 30.25-1.36 39.85-1.693 116.317-1.693s86.067 0.333 116.096 1.69c24.684 0.519 48.103 5.282 69.769 13.584 36.559 14.473 66.044 44 80.6 81.030 8.163 21.225 12.926 44.644 13.441 69.107 1.36 30.122 1.693 39.722 1.693 116.189s-0.333 86.067-1.69 116.096c-0.519 24.684-5.282 48.103-13.584 69.769-14.473 36.559-44 66.044-81.030 80.6-21.225 8.163-44.644 12.926-69.107 13.441-30.122 1.36-39.722 1.693-116.189 1.693z" />
<glyph unicode="&#xe95c;" d="M512 592.589c-79.843-0.015-144.563-64.744-144.563-144.589 0-79.854 64.735-144.589 144.589-144.589s144.589 64.735 144.589 144.589c-0.015 79.857-64.755 144.589-144.614 144.589zM512 354.125c-51.821 0.015-93.824 42.027-93.824 93.85 0 51.832 42.018 93.85 93.85 93.85 51.823 0 93.835-42.003 93.85-93.822 0-51.847-42.029-93.877-93.875-93.877z" />
<glyph unicode="&#xe95d;" d="M696.115 598.323c0-18.663-15.129-33.792-33.792-33.792s-33.792 15.129-33.792 33.792c0 18.663 15.129 33.792 33.792 33.792s33.792-15.129 33.792-33.792z" />
<glyph unicode="&#xe95e;" d="M0 960h1024v-1024h-1024v1024z" />
<glyph unicode="&#xe95f;" d="M819.661 483.354c0 137.677-138.010 249.677-307.661 249.677s-307.661-112.026-307.661-249.677c0-123.418 109.44-226.79 257.306-246.323 10.035-2.15 23.654-6.605 27.11-15.181 1.331-4.835 2.096-10.386 2.096-16.117 0-4.141-0.4-8.19-1.162-12.108s-3.545-21.311-4.313-25.945c-1.331-7.68-6.195-30.413 26.65-16.589 92.745 49.389 172.348 108.873 241.67 178.591l0.045 0.046c39.73 39.29 64.706 93.428 65.916 153.398zM403.456 409.856c0-3.308-2.682-5.99-5.99-5.99h-86.221c-1.574 0.021-2.997 0.652-4.047 1.666l0.002-0.002c-1.030 1.074-1.664 2.535-1.664 4.143 0 0.001 0 0.003 0 0.004v0 134.195c0 3.308 2.682 5.99 5.99 5.99h21.274c3.308 0 5.99-2.682 5.99-5.99v-106.47h58.65c3.308 0 5.99-2.682 5.99-5.99zM455.501 409.856c0-3.308-2.682-5.99-5.99-5.99h-21.581c-3.308 0-5.99 2.682-5.99 5.99v134.042c0 3.308 2.682 5.99 5.99 5.99h21.581c3.308 0 5.99-2.682 5.99-5.99zM603.981 409.856c0-3.308-2.682-5.99-5.99-5.99h-21.581c-0.547 0-1.075 0.075-1.577 0.215l0.041-0.010-0.41 0.128h-0.461l-0.282 0.154h-0.179l-0.358 0.23c-0.603 0.407-1.112 0.9-1.524 1.467l-61.452 83.089v-79.616c0-3.308-2.682-5.99-5.99-5.99h-21.581c-3.308 0-5.99 2.682-5.99 5.99v134.374c0 3.308 2.682 5.99 5.99 5.99h23.757l0.333-0.154h0.205l0.307-0.179h0.179l0.307-0.205h0.154l0.307-0.256 0.358-0.358 0.486-0.614 61.44-82.97v78.746c0 3.308 2.682 5.99 5.99 5.99h21.581c3.308 0 5.99-2.682 5.99-5.99zM723.2 522.24c0-3.308-2.682-5.99-5.99-5.99h-58.65v-22.656h58.65c3.308 0 5.99-2.682 5.99-5.99v-21.581c0-3.308-2.682-5.99-5.99-5.99h-58.65v-22.656h58.65c3.308 0 5.99-2.682 5.99-5.99v-21.581c0-3.308-2.682-5.99-5.99-5.99h-86.221c-0.010 0-0.023 0-0.035 0-1.599 0-3.050 0.635-4.114 1.666l0.002-0.002c-1.030 1.067-1.664 2.521-1.664 4.123 0 0.009 0 0.017 0 0.026v-0.001 134.246c0.003 1.601 0.637 3.054 1.666 4.124l-0.002-0.002c1.073 1.045 2.541 1.69 4.16 1.69 0.005 0 0.009 0 0.014 0h86.22c3.308 0 5.99-2.682 5.99-5.99z" />
<glyph unicode="&#xe960;" d="M0 960h1024v-1024h-1024v1024z" />
<glyph unicode="&#xe961;" d="M512 716.8c-148.451-0.005-268.792-120.349-268.792-268.8 0-113.202 69.977-210.060 169.034-249.677 0.247 10.029-0.646 22.344-0.646 34.869 0 14.69 1.229 29.093 3.59 43.112 4.679 19.453 31.303 132.093 31.303 132.093-5.085 11.398-8.046 24.699-8.046 38.691 0 0.429 0.003 0.857 0.008 1.284-0.001 37.311 21.657 65.215 48.639 65.215 0.15 0.002 0.328 0.004 0.506 0.004 18.649 0 33.766-15.118 33.766-33.766 0-1.445-0.091-2.869-0.267-4.266-5.513-34.027-13.26-64.194-23.411-93.231 0.386 0.901-0.056-2.424-0.056-5.853 0-21.561 17.479-39.040 39.040-39.040 0.696 0 1.388 0.018 2.076 0.054 47.673-0.004 84.384 50.377 84.384 123.081 0.035 1.024 0.056 2.226 0.056 3.434 0 58.604-47.508 106.112-106.112 106.112-2.19 0-4.365-0.066-6.522-0.197-1.201 0.083-2.957 0.123-4.722 0.123-64.259 0-116.352-52.093-116.352-116.352 0-0.146 0-0.292 0.001-0.438 0.013-23.072 7.511-44.413 20.198-61.71 1.141-1.141 1.967-3.075 1.967-5.203 0-0.778-0.111-1.53-0.317-2.242-2.034-8.442-6.565-26.695-7.461-30.433-1.178-4.915-3.891-5.965-8.986-3.584-33.562 15.616-54.554 64.717-54.554 104.141 0 84.787 61.619 162.662 177.613 162.662 2.383 0.129 5.172 0.202 7.978 0.202 86.31 0 156.431-69.317 157.729-155.318 0.001-92.768-58.418-167.316-139.493-167.316-0.752-0.028-1.636-0.044-2.524-0.044-24.383 0-45.933 12.131-58.942 30.687s-13.619-50.969-16.896-63.769c-8.803-26.874-20.128-50.2-34.114-71.631 24.12-6.234 51.046-10.491 78.966-10.491 148.454 0 268.8 120.346 268.8 268.8 0 147.977-119.574 268.027-267.37 268.796z" />
<glyph unicode="&#xe962;" d="M0 960h1024v-1024h-1024v1024z" />
<glyph unicode="&#xe963;" d="M815.078 613.402v0zM636.467 668.672c-0.183 0.001-0.399 0.002-0.616 0.002-65.232 0-118.153-52.707-118.501-117.856 0-0.097 0-0.172 0-0.248 0-9.451 1.129-18.638 3.26-27.433-99.169 5.724-186.381 52.375-245.212 123.39-10.588-16.42-16.579-36.894-16.579-58.767 0-40.838 20.883-76.799 52.554-97.786-19.445 0.357-37.936 5.746-54.11 14.785 0.605-0.797 0.605-1.284 0.605-1.796 0.228-57.042 40.801-104.542 94.652-115.456-8.636-2.742-19.425-4.245-30.565-4.245-7.934 0-15.69 0.762-23.199 2.217 16.679-47.498 60.305-81.18 111.919-82.042-40.362-31.474-91.895-50.459-147.863-50.459-9.988 0-19.835 0.605-29.506 1.779 52.718-33.338 115.684-53.082 183.261-53.082 0.16 0 0.32 0 0.481 0 1.216-0.017 2.681-0.026 4.148-0.026 184.861 0 334.72 149.859 334.72 334.72 0 0.234 0 0.468-0.001 0.702 0 5.084-0.128 10.204-0.358 15.324 23.396 16.856 43.116 37.081 58.909 60.202-19.388-8.151-42.498-14.687-66.718-17.618 23.417 14.579 41.92 37.248 50.959 64.254-21.536-12.178-46.875-22.101-73.847-27.503-23.36 22.693-54.123 36.967-88.22 36.967-0.124 0-0.248 0-0.372-0.001z" />
<glyph unicode="&#xe964;" d="M0 960h1024v-1024h-1024v1024z" />
<glyph unicode="&#xe965;" d="M797.363 564.429c-2.939 21.97-11.139 41.601-23.286 58.157-14.663 14.697-35.26 24.088-58.051 24.326-81.658 5.888-204.026 5.888-204.026 5.888v0s-122.24 0-203.75-5.888c-22.836-0.239-43.433-9.63-58.336-24.672-11.909-16.209-20.11-35.841-22.975-57.164-3.505-28.655-5.608-61.374-5.88-94.53l-0.002-44.562c0.274-33.532 2.378-66.251 6.217-98.438 2.531-17.792 10.731-37.424 22.88-53.978 16.777-14.808 39.24-24.183 63.887-24.531 46.536-4.455 197.96-5.838 197.96-5.838s122.368 0.179 203.878 6.067c22.836 0.239 43.433 9.63 58.336 24.672 11.907 16.21 20.108 35.842 22.975 57.164 3.502 28.652 5.606 61.372 5.88 94.527l0.002 44.565c-0.24 33.484-2.307 66.202-6.108 98.389zM451.763 372.429v163.661l157.517-82.099z" />
<glyph unicode="&#xe967;" horiz-adv-x="2304" d="M1280 960h1024v-1024h-1024v1024z" />
<glyph unicode="&#xe968;" horiz-adv-x="2304" d="M0 960h1024v-1024h-1024v1024z" />
<glyph unicode="&#xe969;" horiz-adv-x="2304" d="M2034.586 819.917h64.717v-323.482h-64.717v323.482z" />
<glyph unicode="&#xe96a;" horiz-adv-x="2304" d="M1624.883 604.16c0-59.523-48.253-107.776-107.776-107.776s-107.776 48.253-107.776 107.776v215.757h64.768v-215.757c0-23.739 19.244-42.982 42.982-42.982s42.982 19.244 42.982 42.982v215.757h64.794z" />
<glyph unicode="&#xe96b;" horiz-adv-x="2304" d="M1926.656 76.058h-215.475v323.482h64.589v-258.714h150.886v-64.768z" />
<glyph unicode="&#xe96c;" horiz-adv-x="2304" d="M1926.656 496.435h-64.666l-86.221 184.858v-184.858h-64.589v323.482h64.589l86.221-184.858v184.858h64.666v-323.482z" />
<glyph unicode="&#xe96d;" horiz-adv-x="2304" d="M1517.184 399.539c-59.554-0.015-107.827-48.296-107.827-107.853 0-0.036 0-0.072 0-0.108v-107.745c0-59.523 48.253-107.776 107.776-107.776 0.018 0 0.036 0 0.054 0 0.182-0.001 0.4-0.002 0.618-0.002 7.176 0 14.192 0.681 20.989 1.981l21.296-66.671h64.794l-31.974 95.923c19.745 19.504 31.974 46.578 31.974 76.508 0 0.049 0 0.098 0 0.146v107.64c0 0.038 0 0.083 0 0.128 0 59.506-48.203 107.754-107.692 107.827zM1560.090 183.859c0-23.739-19.244-42.982-42.982-42.982s-42.982 19.244-42.982 42.982v107.725c0 23.739 19.244 42.982 42.982 42.982s42.982-19.244 42.982-42.982z" />
<glyph unicode="&#xe96e;" horiz-adv-x="2304" d="M2066.944 399.539c-59.622 0-107.955-48.333-107.955-107.955v-107.75c0.935-58.832 48.847-106.166 107.814-106.166s106.879 47.333 107.813 106.078l0.001 107.838c0 0.023 0 0.050 0 0.077 0 59.508-48.182 107.762-107.662 107.878zM2109.978 183.859c0-23.802-19.295-43.098-43.098-43.098s-43.098 19.295-43.098 43.098v107.725c0 23.802 19.295 43.098 43.098 43.098s43.098-19.295 43.098-43.098z" />
<glyph unicode="&#xe96f;" horiz-adv-x="2304" d="M582.093 571.955h290.79v-64.589h-290.79v64.589z" />
<glyph unicode="&#xe970;" horiz-adv-x="2304" d="M614.323 819.917h226.381v-64.691h-226.381v64.691z" />
<glyph unicode="&#xe971;" horiz-adv-x="2304" d="M377.37 819.917h-194.253v-64.691h129.459v-183.27h-161.587v-64.589h290.944v64.589h-64.563v247.962z" />
<glyph unicode="&#xe972;" horiz-adv-x="2304" d="M582.093 388.813v0-312.755h290.867v312.755zM808.192 140.8h-161.562v183.245h161.562z" />
<glyph unicode="&#xe973;" horiz-adv-x="2304" d="M183.117 388.813l-32.922-156.493h64.538l19.482 91.725h129.792l-38.042-183.194h-194.483l-12.954-64.794h258.842l64.563 312.755h-258.816z" />
<glyph unicode="&#xe974;" d="M0 960h1024v-1024h-1024v1024z" />
<glyph unicode="&#xe975;" d="M517.99 485.222h-220.16v-74.47h144.307c-17.037-65.079-75.315-112.319-144.627-112.319-82.442 0-149.274 66.832-149.274 149.274s66.832 149.274 149.274 149.274c37.916 0 72.53-14.136 98.859-37.426l94.766 0.138c-40.125 69.204-113.854 115.006-198.28 115.006-126.158 0-228.429-102.271-228.429-228.429s102.271-228.429 228.429-228.429c126.158 0 228.429 102.271 228.429 228.429 0 13.763-1.217 27.241-3.55 40.334z" />
<glyph unicode="&#xe976;" d="M875.059 643.482v-242.022c0-56.554-45.846-102.4-102.4-102.4s-102.4 45.846-102.4 102.4v242.022h-74.47v-242.022c0-97.683 79.188-176.87 176.87-176.87s176.87 79.188 176.87 176.87v0 242.022z" />
<glyph unicode="&#xe97e;" horiz-adv-x="2304" d="M0 960h1024v-1024h-1024v1024z" />
<glyph unicode="&#xe97f;" horiz-adv-x="2304" d="M1280 960h1024v-1024h-1024v1024z" />
<glyph unicode="&#xe980;" horiz-adv-x="2304" d="M754.586 819.917h64.717v-323.482h-64.717v323.482z" />
<glyph unicode="&#xe981;" horiz-adv-x="2304" d="M344.883 604.16c0-59.523-48.253-107.776-107.776-107.776s-107.776 48.253-107.776 107.776v215.757h64.768v-215.757c0-23.739 19.244-42.982 42.982-42.982s42.982 19.244 42.982 42.982v215.757h64.794z" />
<glyph unicode="&#xe982;" horiz-adv-x="2304" d="M646.656 76.058h-215.475v323.482h64.589v-258.714h150.886v-64.768z" />
<glyph unicode="&#xe983;" horiz-adv-x="2304" d="M646.656 496.435h-64.691l-86.195 184.858v-184.858h-64.589v323.482h64.589l86.195-184.858v184.858h64.691v-323.482z" />
<glyph unicode="&#xe984;" horiz-adv-x="2304" d="M237.158 399.539c-59.554-0.015-107.827-48.296-107.827-107.853 0-0.036 0-0.072 0-0.108v-107.745c0-59.523 48.253-107.776 107.776-107.776 0.018 0 0.036 0 0.054 0 0.182-0.001 0.4-0.002 0.618-0.002 7.176 0 14.192 0.681 20.989 1.981l21.296-66.671h64.794l-31.974 95.923c19.745 19.504 31.974 46.578 31.974 76.508 0 0.049 0 0.098 0 0.146v107.64c0 0.038 0 0.083 0 0.128 0 59.506-48.203 107.754-107.692 107.827zM280.064 183.859c0-23.739-19.244-42.982-42.982-42.982s-42.982 19.244-42.982 42.982v107.725c0 23.739 19.244 42.982 42.982 42.982s42.982-19.244 42.982-42.982z" />
<glyph unicode="&#xe985;" horiz-adv-x="2304" d="M786.918 399.539c-59.622 0-107.955-48.333-107.955-107.955v-107.75c0.935-58.832 48.847-106.166 107.814-106.166s106.879 47.333 107.813 106.078l0.001 107.838c0 0.023 0 0.050 0 0.077 0 59.508-48.182 107.762-107.662 107.878zM829.952 183.859c0-23.802-19.295-43.098-43.098-43.098s-43.098 19.295-43.098 43.098v107.725c0 23.802 19.295 43.098 43.098 43.098s43.098-19.295 43.098-43.098z" />
<glyph unicode="&#xe986;" horiz-adv-x="2304" d="M1797.99 485.222h-220.16v-74.47h144.307c-17.037-65.079-75.315-112.319-144.627-112.319-82.442 0-149.274 66.832-149.274 149.274s66.832 149.274 149.274 149.274c37.916 0 72.53-14.136 98.859-37.426l94.766 0.138c-40.125 69.204-113.854 115.006-198.28 115.006-126.158 0-228.429-102.271-228.429-228.429s102.271-228.429 228.429-228.429c126.158 0 228.429 102.271 228.429 228.429 0 13.763-1.217 27.241-3.55 40.334z" />
<glyph unicode="&#xe987;" horiz-adv-x="2304" d="M2155.059 643.482v-242.022c0-56.554-45.846-102.4-102.4-102.4s-102.4 45.846-102.4 102.4v242.022h-74.47v-242.022c0-97.683 79.188-176.87 176.87-176.87s176.87 79.188 176.87 176.87v0 242.022z" />
<glyph unicode="&#xe989;" glyph-name="icn_icn_single-select_deselected" d="M512 857.6c0.545 0.003 1.19 0.004 1.835 0.004 226.218 0 409.604-183.386 409.604-409.604 0-225.573-182.342-408.558-407.67-409.6h-3.769c-0.545-0.003-1.19-0.004-1.835-0.004-226.218 0-409.604 183.386-409.604 409.604 0 225.573 182.342 408.558 407.67 409.6h3.769zM512 960h-4.693c-281.762-1.333-509.659-230.052-509.659-512 0-282.773 229.233-512.005 512.005-512.005 0.825 0 1.65 0.002 2.474 0.006h4.694c281.735 1.369 509.595 230.075 509.595 512 0 282.773-229.233 512.006-512.006 512.006-0.848 0-1.695-0.002-2.542-0.006zM509.611 704c0.448 0.003 0.979 0.004 1.51 0.004 142.28 0 257.621-115.341 257.621-257.621 0-37.060-7.825-72.293-21.914-104.135-22.867-57.141-68.002-103.081-124.68-127.105-33.186-15.618-70.328-24.405-109.523-24.405-141.738 0-256.64 114.902-256.64 256.64 0 140.678 113.19 254.92 253.465 256.621z" />
<glyph unicode="&#xe98a;" d="M512 874.667c-235.641 0-426.667-191.025-426.667-426.667s191.025-426.667 426.667-426.667c235.641 0 426.667 191.025 426.667 426.667s-191.025 426.667-426.667 426.667z" />
<glyph unicode="&#xe98b;" d="M561.237 224.683c0-34.645-18.133-55.125-48.853-55.125s-48.853 20.48-48.853 55.125v283.52c-0.177 1.564-0.277 3.376-0.277 5.212 0 27.122 21.987 49.109 49.109 49.109s49.109-21.987 49.109-49.109c0-1.836-0.101-3.648-0.297-5.432zM565.163 673.621c-0.219 29.195-23.936 52.777-53.161 52.777-29.361 0-53.163-23.802-53.163-53.163 0-29.21 23.558-52.918 52.712-53.161 0.461-0.013 0.977-0.021 1.494-0.021 28.795 0 52.139 23.343 52.139 52.139 0 0.517-0.008 1.033-0.023 1.547z" />
<glyph unicode="&#xe98e;" d="M0 960h1024v-1024h-1024v1024z" />
<glyph unicode="&#xe98f;" d="M453.12 159.053v252.826h-86.246v95.411h86.246v74.931c0 84.352 51.2 133.658 126.387 133.658 0.014 0 0.030 0 0.047 0 27.358 0 54.347-1.581 80.88-4.657l-3.231-90.601h-55.757c-40.96 0-48.64-20.301-48.64-48.845v-64.512h99.226l-12.8-95.411h-86.272v-252.826z" />
<glyph unicode="&#xe990;" d="M0 960h1024v-1024h-1024v1024z" />
<glyph unicode="&#xe991;" d="M819.661 483.354c0 137.677-138.010 249.677-307.661 249.677s-307.661-112.026-307.661-249.677c0-123.418 109.44-226.79 257.306-246.323 10.035-2.15 23.654-6.605 27.11-15.181 1.331-4.835 2.096-10.386 2.096-16.117 0-4.141-0.4-8.19-1.162-12.108s-3.545-21.311-4.313-25.945c-1.331-7.68-6.195-30.413 26.65-16.589 92.745 49.389 172.348 108.873 241.67 178.591l0.045 0.046c39.73 39.29 64.706 93.428 65.916 153.398zM403.456 409.856c0-3.308-2.682-5.99-5.99-5.99h-86.221c-1.574 0.021-2.997 0.652-4.047 1.666l0.002-0.002c-1.030 1.074-1.664 2.535-1.664 4.143 0 0.001 0 0.003 0 0.004v0 134.195c0 3.308 2.682 5.99 5.99 5.99h21.274c3.308 0 5.99-2.682 5.99-5.99v-106.47h58.65c3.308 0 5.99-2.682 5.99-5.99zM455.501 409.856c0-3.308-2.682-5.99-5.99-5.99h-21.581c-3.308 0-5.99 2.682-5.99 5.99v134.042c0 3.308 2.682 5.99 5.99 5.99h21.581c3.308 0 5.99-2.682 5.99-5.99zM603.981 409.856c0-3.308-2.682-5.99-5.99-5.99h-21.581c-0.547 0-1.075 0.075-1.577 0.215l0.041-0.010-0.41 0.128h-0.461l-0.282 0.154h-0.179l-0.358 0.23c-0.603 0.407-1.112 0.9-1.524 1.467l-61.452 83.089v-79.616c0-3.308-2.682-5.99-5.99-5.99h-21.581c-3.308 0-5.99 2.682-5.99 5.99v134.374c0 3.308 2.682 5.99 5.99 5.99h23.757l0.333-0.154h0.205l0.307-0.179h0.179l0.307-0.205h0.154l0.307-0.256 0.358-0.358 0.486-0.614 61.44-82.97v78.746c0 3.308 2.682 5.99 5.99 5.99h21.581c3.308 0 5.99-2.682 5.99-5.99zM723.2 522.24c0-3.308-2.682-5.99-5.99-5.99h-58.65v-22.656h58.65c3.308 0 5.99-2.682 5.99-5.99v-21.581c0-3.308-2.682-5.99-5.99-5.99h-58.65v-22.656h58.65c3.308 0 5.99-2.682 5.99-5.99v-21.581c0-3.308-2.682-5.99-5.99-5.99h-86.221c-0.010 0-0.023 0-0.035 0-1.599 0-3.050 0.635-4.114 1.666l0.002-0.002c-1.030 1.067-1.664 2.521-1.664 4.123 0 0.009 0 0.017 0 0.026v-0.001 134.246c0.003 1.601 0.637 3.054 1.666 4.124l-0.002-0.002c1.073 1.045 2.541 1.69 4.16 1.69 0.005 0 0.009 0 0.014 0h86.22c3.308 0 5.99-2.682 5.99-5.99z" />
<glyph unicode="&#xe992;" d="M0 960h1024v-1024h-1024v1024z" />
<glyph unicode="&#xe993;" d="M802.278 613.402v0zM623.667 668.672c-0.183 0.001-0.399 0.002-0.616 0.002-65.232 0-118.153-52.707-118.501-117.856 0-0.094 0-0.166 0-0.239 0-9.454 1.129-18.644 3.26-27.443-99.169 5.725-186.381 52.375-245.212 123.39-10.588-16.42-16.579-36.894-16.579-58.767 0-40.838 20.883-76.799 52.554-97.786-19.445 0.36-37.936 5.749-54.11 14.786 0.606-0.797 0.606-1.284 0.606-1.796 0.228-57.042 40.801-104.542 94.652-115.456-8.636-2.742-19.425-4.245-30.565-4.245-7.934 0-15.69 0.762-23.199 2.217 16.679-47.498 60.305-81.18 111.919-82.042-40.362-31.474-91.895-50.459-147.863-50.459-9.988 0-19.835 0.605-29.506 1.779 52.718-33.338 115.684-53.082 183.261-53.082 0.16 0 0.32 0 0.481 0 1.216-0.017 2.681-0.026 4.148-0.026 184.861 0 334.72 149.859 334.72 334.72 0 0.234 0 0.468-0.001 0.702q0 7.644-0.358 15.324c23.396 16.856 43.116 37.081 58.909 60.202-19.389-8.152-42.498-14.688-66.719-17.618 23.417 14.579 41.921 37.248 50.959 64.254-21.536-12.177-46.875-22.101-73.847-27.503-23.36 22.693-54.123 36.967-88.22 36.967-0.124 0-0.248 0-0.372-0.001z" />
<glyph unicode="&#xe995;" glyph-name="icn_minus" d="M870.4 345.6h-716.8c-56.554 0-102.4 45.846-102.4 102.4s45.846 102.4 102.4 102.4h716.8c56.554 0 102.4-45.846 102.4-102.4s-45.846-102.4-102.4-102.4z" />
<glyph unicode="&#xe996;" glyph-name="icn_multi-select_deselected" d="M512 874.667c235.641 0 426.667-191.025 426.667-426.667s-191.025-426.667-426.667-426.667c-235.641 0-426.667 191.025-426.667 426.667 0.267 235.534 191.133 426.4 426.641 426.667zM512 960c-282.77 0-512-229.23-512-512s229.23-512 512-512c282.77 0 512 229.23 512 512s-229.23 512-512 512zM787.84 590.763l-53.845 53.888-282.539-282.539-151.68 151.68-53.803-53.845 205.312-205.312 0.171 0.171 0.213-0.171 336.171 336.128z" />
<glyph unicode="&#xe999;" glyph-name="icn_nav-sp_bag" d="M704 704v170.667c0 0.089 0.001 0.194 0.001 0.299 0 46.963-38.071 85.035-85.035 85.035-0.105 0-0.21 0-0.315-0.001h-213.317c-47.128 0-85.333-38.205-85.333-85.333v-170.667h-170.667v-768h725.333v768zM405.333 874.667h213.333v-170.667h-213.333z" />
<glyph unicode="&#xe99a;" glyph-name="icn_nav-sp_cart" d="M214.869 320h681.131l128 426.667-768 42.667v128h-213.333c-0.257 0.006-0.559 0.009-0.862 0.009-23.093 0-41.813-18.72-41.813-41.813 0-0.303 0.003-0.606 0.010-0.907-0.006-0.212-0.010-0.514-0.010-0.817 0-23.093 18.72-41.813 41.813-41.813 0.303 0 0.606 0.003 0.907 0.010l127.955-0.001v-434.261c-61.107-20.434-104.367-77.144-104.367-143.957 0-0.39 0.001-0.78 0.004-1.169-0.001-0.089-0.001-0.266-0.001-0.442 0-66.816 45.547-122.994 107.287-139.179-1.405-8.673-2.789-18.378-2.789-28.406 0-58.91 47.756-106.667 106.667-106.667s106.667 47.756 106.667 106.667c0 7.82-0.842 15.444-2.439 22.786l282.198-0.704c-1.37-6.413-2.155-13.782-2.155-21.333 0-58.91 47.756-106.667 106.667-106.667s106.667 47.756 106.667 106.667c0 58.903-47.744 106.654-106.644 106.667h-553.559c-0.705-0.029-1.531-0.046-2.362-0.046-33.626 0-60.885 27.259-60.885 60.885 0 0.481 0.006 0.961 0.017 1.44-0.002 0.054-0.003 0.201-0.003 0.349 0 35.359 28.057 64.165 63.123 65.369z" />
<glyph unicode="&#xe99b;" glyph-name="icn_nav-sp_close" d="M807.979 832.043l-295.936-295.979-296.021 295.979-88.021-88.021 295.979-295.979-295.979-296.021 88.021-88.064 296.021 296.021 295.936-296.021 88.021 88.064-295.979 296.021 295.979 295.979-88.021 88.021z" />
<glyph unicode="&#xe99c;" glyph-name="icn_nav-sp_customer" d="M938.667 546.944h-85.333c0 211.755-153.131 370.389-341.333 370.389s-341.333-158.635-341.333-370.389h-85.333c-47.128 0-85.333-38.205-85.333-85.333v-180.352c0-47.128 38.205-85.333 85.333-85.333h161.195v351.019c-0.219 4.082-0.344 8.861-0.344 13.669 0 147.936 118.342 268.231 265.523 271.382 147.768-3.151 266.11-123.446 266.11-271.382 0-4.808-0.125-9.587-0.372-14.333l0.028-350.312c0-37.538-30.43-67.968-67.968-67.968h-113.536c-23.208 38.633-64.889 64.083-112.514 64.083-1.635 0-3.262-0.030-4.882-0.089-2.7 0.264-6.113 0.411-9.561 0.411-61.478 0-112.047-46.704-118.163-106.567 6.116-60.872 56.686-107.576 118.163-107.576 3.448 0 6.861 0.147 10.234 0.435 0.966-0.084 2.617-0.115 4.274-0.115 47.619 0 89.294 25.452 112.162 63.494l113.865 0.591c84.583 0.17 153.108 68.679 153.301 153.24l75.819 0.019c47.128 0 85.333 38.205 85.333 85.333v180.352c0 47.128-38.205 85.333-85.333 85.333z" />
<glyph unicode="&#xe99d;" glyph-name="icn_nav-sp_favorites" d="M512 42.667c167.168 152.619 362.325 320.939 410.368 475.989 46.379 149.589-8.875 283.776-132.608 324.907-125.568 41.771-233.387-57.472-277.76-164.096-44.373 106.667-152.192 205.867-277.803 164.139-123.733-41.131-178.944-175.317-132.608-324.907 48.085-155.093 243.243-323.413 410.411-476.032z" />
<glyph unicode="&#xe99f;" glyph-name="icn_nav-sp_my" d="M671.872 417.451c60.56 46.858 99.208 119.511 99.328 201.196 0 143.172-116.048 259.22-259.2 259.22s-259.2-116.048-259.2-259.2c0.12-81.705 38.768-154.358 98.744-200.781-130.104-47.155-223.544-137.949-223.544-396.552h768c0 258.603-93.44 349.397-224.128 396.117zM512 789.333c93.335-1.204 168.533-77.147 168.533-170.653 0-94.257-76.41-170.667-170.667-170.667-94.252 0-170.659 76.402-170.667 170.653 0.724 94.413 77.428 170.67 171.942 170.67 0.302 0 0.603-0.001 0.904-0.002zM473.6 362.667h76.8c141.867-31.232 234.965-65.579 254.976-256h-586.923c20.011 190.421 113.152 224.768 255.147 256z" />
<glyph unicode="&#xe9a0;" glyph-name="icn_nav-sp_search" d="M741.931 308.523c42.473 59.743 67.901 134.183 67.901 214.562 0 205.974-166.975 372.949-372.949 372.949-102.936 0-196.132-41.703-263.615-109.134-67.61-67.502-109.436-160.816-109.436-263.899 0-205.951 166.956-372.907 372.907-372.907 80.42 0 154.894 25.457 215.804 68.751l198.189-200.157c11.585-11.585 27.591-18.751 45.269-18.751 35.358 0 64.021 28.663 64.021 64.021 0 17.679-7.166 33.684-18.751 45.269zM263.765 349.867c-44.39 44.37-71.848 105.677-71.848 173.397 0 135.4 109.763 245.163 245.163 245.163s245.163-109.763 245.163-245.163c0-135.4-109.763-245.163-245.163-245.163-0.001 0-0.002 0-0.003 0-0.183 0-0.399-0.001-0.616-0.001-67.485 0-128.562 27.434-172.687 71.757z" />
<glyph unicode="&#xe9a1;" glyph-name="icn_nav-sp_stores" d="M512 896c-1.718 0.034-3.744 0.053-5.775 0.053-171.462 0-310.854-137.306-314.22-307.963 0.104-38.199 7.281-74.376 20.275-107.639l1.779-4.462q3.669-8.96 7.851-17.664l290.091-458.325 290.133 458.325q4.267 8.533 7.851 17.664l2.773 6.272c12.033 31.334 19.076 67.577 19.242 105.444-3.347 171.037-142.73 308.348-314.183 308.348-2.045 0-4.086-0.020-6.122-0.058zM512 489.813c-0.564-0.011-1.23-0.017-1.896-0.017-56.633 0-102.673 45.35-103.787 101.716 2.342 56.663 48.762 101.627 105.684 101.627s103.341-44.964 105.678-101.311c-1.109-56.681-47.149-102.031-103.782-102.031-0.667 0-1.332 0.006-1.996 0.019z" />
<glyph unicode="&#xe9a3;" glyph-name="icn_play_medium" d="M0 448c0 282.77 229.23 512 512 512s512-229.23 512-512c0-282.77-229.23-512-512-512s-512 229.23-512 512zM731.429 448l-292.571 268.19v-536.381z" />
<glyph unicode="&#xe9a4;" glyph-name="icn_plus" d="M870.4 345.6h-716.8c-56.554 0-102.4 45.846-102.4 102.4s45.846 102.4 102.4 102.4h716.8c56.554 0 102.4-45.846 102.4-102.4s-45.846-102.4-102.4-102.4zM512-12.8c-56.554 0-102.4 45.846-102.4 102.4v716.8c0 56.554 45.846 102.4 102.4 102.4s102.4-45.846 102.4-102.4v-716.8c0-56.554-45.846-102.4-102.4-102.4z" />
<glyph unicode="&#xe9a8;" glyph-name="icn_remove" d="M709.333 704l-197.333-197.291-197.333 197.291-58.667-58.667 197.333-197.291-197.333-197.333 58.667-58.709 197.333 197.333 197.333-197.333 58.667 58.709-197.333 197.333 197.333 197.291-58.667 58.667z" />
<glyph unicode="&#xe9a9;" glyph-name="icn_reverse" d="M371.2-64c-0.025 0-0.054 0-0.083 0-24.713 0-47.082 10.040-63.249 26.263l-281.603 281.603c-16.229 16.209-26.268 38.612-26.268 63.36s10.039 47.151 26.267 63.359l281.601 281.601c16.095 15.554 38.045 25.139 62.233 25.139 49.485 0 89.6-40.115 89.6-89.6 0-24.201-9.595-46.162-25.188-62.284l-218.19-218.241 218.214-218.266c16.201-16.212 26.221-38.603 26.221-63.334 0-49.469-40.090-89.575-89.553-89.6zM652.8 217.6h-563.2c-49.485 0-89.6 40.115-89.6 89.6s40.115 89.6 89.6 89.6h563.2c106.039 0 192 85.961 192 192s-85.961 192-192 192h-93.85c-49.485 0-89.6 40.115-89.6 89.6s40.115 89.6 89.6 89.6h93.85c205.008 0 371.2-166.192 371.2-371.2s-166.192-371.2-371.2-371.2z" />
<glyph unicode="&#xe9b4;" glyph-name="icn_search_forms" d="M957.85 74.547l-261.53 261.53c44.744 59.266 71.666 134.17 71.666 215.362 0 198.504-160.92 359.424-359.424 359.424s-359.424-160.92-359.424-359.424c0-198.504 160.92-359.424 359.424-359.424 81.192 0 156.096 26.921 216.273 72.324l260.619-262.137c9.198-8.892 21.744-14.372 35.569-14.372 28.277 0 51.2 22.923 51.2 51.2 0 13.826-5.48 26.371-14.386 35.584zM153.6 550.4c0 141.385 114.615 256 256 256s256-114.615 256-256c0-141.385-114.615-256-256-256-141.314 0.175-255.825 114.685-256 255.983z" />
<glyph unicode="&#xe9b5;" glyph-name="icn_secure" d="M738.517 515.627v87.381c0 125.102-101.415 226.517-226.517 226.517s-226.517-101.415-226.517-226.517v-87.381h-72.149v-457.941h597.333v457.941zM377.813 603.008c0 74.109 60.077 134.187 134.187 134.187s134.187-60.077 134.187-134.187v-87.381h-268.373zM718.293 150.741h-412.629v271.957h412.629zM487.893 281.941v-80.299h48.085v79.957c14.607 8.469 24.275 24.031 24.275 41.851 0 26.627-21.586 48.213-48.213 48.213s-48.213-21.586-48.213-48.213c0-0.163 0.001-0.326 0.002-0.489-0.007-0.274-0.011-0.626-0.011-0.98 0-17.364 9.649-32.475 23.879-40.262z" />
<glyph unicode="&#xe9b8;" horiz-adv-x="2731" d="M1055.539 471.893h-49.698v-161.075h-55.057v161.075h-23.893v54.852h23.893v8.909c0.175 46.355 37.793 83.866 84.172 83.866 0.048 0 0.096 0 0.145 0h20.473v-55.023h-20.48c-0.112 0.002-0.243 0.002-0.375 0.002-15.937 0-28.859-12.911-28.877-28.843v-8.91h49.698z" />
<glyph unicode="&#xe9b9;" horiz-adv-x="2731" d="M1196.646 323.55c-8.084-7.52-18.794-12.313-30.612-12.864l-11.986-0.004c-37.005 0-67.004 29.999-67.004 67.004s29.999 67.004 67.004 67.004h42.598c0.145 1.037 0.228 2.236 0.228 3.454 0 14.534-11.782 26.317-26.317 26.317-0.512 0-1.021-0.015-1.526-0.044-11.091-0.158-20.617-6.991-24.712-16.679l-51.267 21.12c13.075 29.668 42.036 50.098 75.82 50.551 0.433 0.007 0.876 0.010 1.32 0.010 45.017 0 81.51-36.493 81.51-81.51 0-1.168-0.025-2.33-0.073-3.486l0.006-133.842h-54.989zM1138.62 377.685c-0.003-0.113-0.005-0.247-0.005-0.38 0-8.37 6.785-15.155 15.155-15.155 0.134 0 0.267 0.002 0.4 0.005h15.511c0.361-0.018 0.783-0.028 1.208-0.028 14.346 0 25.975 11.63 25.975 25.975 0 0.863-0.042 1.717-0.124 2.558l0.008 2.556h-42.701c-0.274 0.018-0.594 0.029-0.916 0.029-8.106 0-14.677-6.571-14.677-14.677 0-0.322 0.010-0.642 0.031-0.959z" />
<glyph unicode="&#xe9ba;" horiz-adv-x="2731" d="M1371.477 474.385c-0.071 0.001-0.156 0.001-0.24 0.001-15.081 0-27.307-12.226-27.307-27.307 0-0.084 0-0.169 0.001-0.253v-56.307c0-15.081 12.226-27.307 27.307-27.307s27.307 12.226 27.307 27.307h54.989c0.011-0.499 0.017-1.087 0.017-1.676 0-45.469-36.86-82.33-82.33-82.33s-82.33 36.86-82.33 82.33c0 0.589 0.006 1.177 0.019 1.764l-0.001 56.233c-0.011 0.499-0.017 1.087-0.017 1.676 0 45.469 36.86 82.33 82.33 82.33s82.33-36.86 82.33-82.33c0-0.589-0.006-1.177-0.019-1.764l-54.987 0.087c0.004 0.163 0.006 0.354 0.006 0.546 0 14.911-12.088 26.999-26.999 26.999-0.026 0-0.052 0-0.078 0z" />
<glyph unicode="&#xe9bb;" horiz-adv-x="2731" d="M1535.215 390.519c0.153-16.113 13.174-29.133 29.272-29.286 0.123-0.002 0.251-0.002 0.379-0.002 8.22 0 15.642 3.414 20.926 8.902l36.839-37.708c-14.557-15.061-34.94-24.412-57.507-24.412-0.375 0-0.749 0.003-1.122 0.008-45.327 0.27-82.016 37.115-82.034 82.532v56.322c-0.011 0.499-0.017 1.087-0.017 1.676 0 45.469 36.86 82.33 82.33 82.33s82.33-36.86 82.33-82.33c0-0.589-0.006-1.177-0.019-1.764l0.001-49.577h-111.377zM1564.501 476.16c-0.125 0.002-0.272 0.003-0.419 0.003-15.986 0-28.945-12.959-28.945-28.945 0-0.746 0.028-1.485 0.084-2.217l58.021 0.097c0.069 0.747 0.109 1.615 0.109 2.493 0 15.779-12.791 28.57-28.57 28.57-0.098 0-0.197 0-0.295-0.001z" />
<glyph unicode="&#xe9bc;" horiz-adv-x="2731" d="M1766.844 526.746c40.655-1.562 73.020-34.897 73.020-75.792 0-2.157-0.090-4.293-0.267-6.405l0.019-51.197c0.169-1.902 0.265-4.114 0.265-6.348 0-40.982-32.33-74.414-72.878-76.18-0.796-0.033-1.542-0.048-2.292-0.048-13.296 0-25.45 4.889-34.763 12.967l0.066-12.924h-55.057v308.668h55.023v-105.609c9.543 8.015 21.962 12.885 35.518 12.885 0.473 0 0.945-0.006 1.415-0.018zM1757.525 471.893c-0.071 0.001-0.156 0.001-0.24 0.001-14.997 0-27.171-12.090-27.306-27.056v-51.93c0.135-14.979 12.309-27.069 27.307-27.069 15.082 0 27.308 12.226 27.308 27.308 0 0.084 0 0.168-0.001 0.252v51.187c-0.094 14.959-12.128 27.077-27.046 27.306z" />
<glyph unicode="&#xe9bd;" horiz-adv-x="2731" d="M1943.006 308.053c-45.551 0.078-82.457 36.983-82.534 82.527v56.328c-0.011 0.499-0.017 1.087-0.017 1.676 0 45.469 36.86 82.33 82.33 82.33s82.33-36.86 82.33-82.33c0-0.589-0.006-1.177-0.019-1.764l0.001-56.233c-0.019-45.419-36.707-82.263-82.065-82.534zM1943.006 363.042c14.978 0.135 27.069 12.308 27.069 27.306 0 0.084 0 0.169-0.001 0.253v56.307c0 15.081-12.226 27.307-27.307 27.307s-27.307-12.226-27.307-27.307v-56.32c-0.003-0.143-0.004-0.312-0.004-0.482 0-14.968 12.134-27.102 27.102-27.102 0.158 0 0.315 0.001 0.472 0.004z" />
<glyph unicode="&#xe9be;" horiz-adv-x="2731" d="M2128.043 308.053c-45.551 0.078-82.457 36.983-82.534 82.527v56.328c-0.011 0.499-0.017 1.087-0.017 1.676 0 45.469 36.86 82.33 82.33 82.33s82.33-36.86 82.33-82.33c0-0.589-0.006-1.177-0.019-1.764l0.001-56.233c-0.019-45.419-36.707-82.263-82.065-82.534zM2128.043 363.042c14.978 0.135 27.069 12.308 27.069 27.306 0 0.084 0 0.169-0.001 0.253v56.307c0 15.081-12.226 27.307-27.307 27.307s-27.307-12.226-27.307-27.307v-56.32c-0.003-0.143-0.004-0.312-0.004-0.482 0-14.968 12.134-27.102 27.102-27.102 0.158 0 0.315 0.001 0.472 0.004z" />
<glyph unicode="&#xe9bf;" horiz-adv-x="2731" d="M2421.794 526.746l-70.997-83.866 73.66-132.198h-58.573l-49.732 91.819-21.743-25.737v-66.116h-53.214v308.838h53.248v-174.080l68.813 81.203z" />
<glyph unicode="&#xe9c0;" horiz-adv-x="2731" d="M0-64h2730.667v1024h-2730.667zM2696.533-29.867h-2662.4v955.733h2662.4z" />
<glyph unicode="&#xe9c1;" horiz-adv-x="2731" d="M461.722 210.637v215.552h-73.455v81.34h73.489v63.863c-0.361 3.241-0.567 6.999-0.567 10.805 0 57.044 46.243 103.287 103.287 103.287 1.76 0 3.51-0.044 5.248-0.131-0.244 0.010-0.242 0.010-0.241 0.010 23.342 0 46.368-1.352 69.005-3.981l-2.755-77.222h-47.479c-34.918 0-41.438-17.306-41.438-41.643v-54.989h84.651l-10.82-81.34h-73.83v-215.552z" />
<glyph unicode="&#xe9c2;" glyph-name="icn_share_line" horiz-adv-x="2731" d="M1468.245 372.326v-61.679h-205.926v308.838h61.679v-247.159zM1509.888 619.486h61.679v-308.838h-61.679zM1625.259 310.682v308.804h61.679l82.534-183.706v183.706h61.713v-308.838h-61.713l-82.534 183.706v-183.706zM2090.291 557.807h-144.179v-61.679h113.118v-62.123h-113.118v-61.679h144.213v-61.679h-205.926v308.838h205.892zM0-64h2730.667v1024h-2730.667zM2696.533-29.867h-2662.4v955.733h2662.4zM767.659 483.806c0 114.415-114.688 207.462-255.659 207.462s-255.659-93.082-255.659-207.462c0-102.4 90.965-188.45 213.811-204.8 8.329-1.809 19.661-5.495 22.528-12.595 1.101-4.009 1.734-8.612 1.734-13.363 0-3.446-0.333-6.815-0.968-10.075s-2.95-17.726-3.599-21.549c-1.126-6.451-5.154-25.293 22.153-13.653 77.074 41.042 143.227 90.473 200.837 148.408l0.038 0.038c33.001 32.633 53.754 77.592 54.781 127.398zM421.786 422.741c0-2.752-2.231-4.983-4.983-4.983h-71.68c-1.329 0.006-2.533 0.539-3.414 1.4l0.001-0.001c-0.855 0.884-1.386 2.085-1.399 3.411v111.551c0 2.752 2.231 4.983 4.983 4.983h17.92c2.752 0 4.983-2.231 4.983-4.983v-88.474h48.742c2.752 0 4.983-2.231 4.983-4.983zM465.033 422.741c0-2.752-2.231-4.983-4.983-4.983h-17.92c-2.752 0-4.983 2.231-4.983 4.983v111.377c0 2.752 2.231 4.983 4.983 4.983h17.92c2.752 0 4.983-2.231 4.983-4.983zM588.459 422.741c0-2.752-2.231-4.983-4.983-4.983h-17.92c-0.45 0.002-0.885 0.064-1.297 0.179l0.034-0.008h-0.819l-0.307 0.171c-0.495 0.339-0.913 0.746-1.253 1.214l-51.21 69.066v-66.15c0-2.752-2.231-4.983-4.983-4.983h-17.954c-2.752 0-4.983 2.231-4.983 4.983v111.889c0 2.752 2.231 4.983 4.983 4.983h20.139l0.239-0.171 0.273-0.239 0.307-0.307 0.41-0.512 51.2-68.949v65.195c0 2.752 2.231 4.983 4.983 4.983h17.92c2.752 0 4.983-2.231 4.983-4.983zM687.514 516.267c0-2.752-2.231-4.983-4.983-4.983h-48.742v-18.91h48.879c2.752 0 4.983-2.231 4.983-4.983v-17.92c0-2.752-2.231-4.983-4.983-4.983h-48.879v-18.842h48.879c2.752 0 4.983-2.231 4.983-4.983v-17.92c0-2.752-2.231-4.983-4.983-4.983h-71.68c-1.329 0.006-2.533 0.539-3.414 1.4l0.001-0.001c-0.858 0.882-1.39 2.085-1.399 3.411v111.55c0 1.324 0.52 2.527 1.367 3.415l-0.002-0.002c0.882 0.858 2.085 1.39 3.411 1.399h71.716c2.752 0 4.983-2.231 4.983-4.983z" />
<glyph unicode="&#xe9c3;" glyph-name="icn_share_twitter" horiz-adv-x="2731" d="M1110.323 310.682v247.159h-71.885v61.645h205.892v-61.679h-71.885v-247.159zM1247.471 526.78h54.989l29.286-137.148 27.068 137.148h55.023l27.068-137.148 29.286 137.148h54.989l-51.473-216.098h-63.42l-23.893 121.139-23.893-121.139h-63.556zM1558.972 619.486h54.989v-55.023h-54.989zM1558.972 526.746h54.989v-216.098h-54.989zM1731.14 619.486v-92.74h49.698v-54.852h-49.698v-75.093c-0.11-0.933-0.173-2.014-0.173-3.109 0-15.458 12.531-27.989 27.989-27.989 0.505 0 1.007 0.013 1.506 0.040l20.41-0.003v-54.989h-20.48c-0.316-0.004-0.688-0.007-1.061-0.007-45.729 0-82.846 36.869-83.248 82.503v78.647h-23.893v54.886h23.893v92.706zM1892.215 619.486v-92.74h49.698v-54.852h-49.698v-75.093c-0.11-0.933-0.173-2.014-0.173-3.109 0-15.458 12.531-27.989 27.989-27.989 0.505 0 1.007 0.013 1.506 0.040l20.41-0.003v-54.989h-20.48c-0.316-0.004-0.688-0.007-1.061-0.007-45.729 0-82.846 36.869-83.248 82.503v78.647h-23.893v54.886h23.893v92.706zM2025.745 390.519c0.172-16.105 13.181-29.115 29.27-29.286 0.107-0.001 0.215-0.002 0.323-0.002 8.238 0 15.678 3.413 20.985 8.902l36.838-37.709c-14.579-15.062-34.98-24.412-57.565-24.412-0.354 0-0.708 0.002-1.062 0.007-45.33 0.271-82.018 37.115-82.037 82.532v56.356c-0.011 0.499-0.017 1.087-0.017 1.676 0 45.469 36.86 82.33 82.33 82.33s82.33-36.86 82.33-82.33c0-0.589-0.006-1.177-0.019-1.764l0.001-49.611h-111.377zM2055.031 476.16c-0.125 0.002-0.272 0.003-0.419 0.003-15.986 0-28.945-12.959-28.945-28.945 0-0.746 0.028-1.485 0.084-2.217l58.021 0.097c0.069 0.747 0.109 1.615 0.109 2.493 0 15.779-12.791 28.57-28.57 28.57-0.098 0-0.197 0-0.295-0.001zM2174.293 526.78h54.989v-12.868c9.387 7.994 21.652 12.86 35.053 12.868 20.299-0.26 38.485-9.084 51.15-23.017l-39.441-39.994c-4.939 4.928-11.757 7.975-19.286 7.975-15.005 0-27.183-12.102-27.306-27.078v-134.019h-55.159zM0-64h2730.667v1024h-2730.667zM2696.533-29.867h-2662.4v955.733h2662.4zM755.371 597.367v0zM605.628 643.755c-0.152 0.001-0.332 0.001-0.513 0.001-54.745 0-99.149-44.273-99.361-98.968 0-0.052 0-0.089 0-0.126 0-7.954 0.946-15.687 2.731-23.093-83.141 4.806-156.256 43.915-205.58 103.45-8.877-13.766-13.9-30.931-13.9-49.269 0-34.245 17.517-64.399 44.079-81.99-16.329 0.332-31.842 4.895-45.398 12.525l0.502-1.523c0.129-47.872 34.221-87.744 79.445-96.799-7.186-2.273-16.163-3.519-25.431-3.519-0.089 0-0.178 0-0.267 0-6.629 0.007-13.118 0.64-19.406 1.844 13.995-39.809 50.58-68.029 93.852-68.71-33.842-26.419-77.059-42.356-123.999-42.356-8.37 0-16.623 0.507-24.727 1.491 44.176-27.93 96.937-44.47 153.562-44.47 0.164 0 0.328 0 0.492 0 1.010-0.014 2.232-0.022 3.457-0.022 154.996 0 280.644 125.649 280.644 280.644 0 0.164 0 0.327 0 0.491q0 6.358-0.307 12.775c19.621 14.135 36.155 31.103 49.387 50.504-16.252-6.825-35.624-12.306-55.926-14.773 19.619 12.211 35.13 31.196 42.722 53.817-18.060-10.206-39.316-18.503-61.944-22.983-19.573 19.025-45.363 30.988-73.948 30.988-0.070 0-0.139 0-0.209 0z" />
<glyph unicode="&#xe9c6;" glyph-name="icn_swatch_plus_large" horiz-adv-x="1023" d="M877.714 521.143h-292.571v292.571h-146.286v-292.571h-292.571v-146.286h292.571v-292.571h146.286v292.571h292.571v146.286z" />
<glyph unicode="&#xe9c7;" glyph-name="icn_swatch_plus_small" d="M884.364 541.091h-279.273v279.273h-186.182v-279.273h-279.273v-186.182h279.273v-279.273h186.182v279.273h279.273v186.182z" />
<glyph unicode="&#xe9dc;" d="M512 874.667c-235.641 0-426.667-191.025-426.667-426.667s191.025-426.667 426.667-426.667c235.641 0 426.667 191.025 426.667 426.667s-191.025 426.667-426.667 426.667z" />
<glyph unicode="&#xe9dd;" d="M559.403 201.173c-12.581-11.992-29.653-19.371-48.448-19.371s-35.867 7.379-48.476 19.397c-12.62 11.838-20.517 28.636-20.58 47.279 1.37 37.372 31.617 67.232 69.006 67.978 0.653 0.019 1.337 0.030 2.023 0.030 36.996 0 66.987-29.991 66.987-66.987 0-18.937-7.858-36.039-20.491-48.222zM576.469 606.208c2.988 12.052 5.133 26.199 5.985 40.693-0.042 19.304-7.938 36.098-20.543 47.936-12.322 12.010-29.132 19.397-47.668 19.397-0.789 0-1.575-0.013-2.358-0.040-0.385 0.016-0.972 0.023-1.56 0.023-18.68 0-35.634-7.392-48.096-19.411-12.689-10.079-20.766-25.535-20.766-42.877 0-1.556 0.065-3.096 0.192-4.619 0.178-13.683 1.94-27.059 5.104-39.883 3.374-14.531 8.28-33.859 13.102-55.704 4.864-20.608 10.88-46.123 17.067-77.568s13.355-69.077 20.608-115.2h27.861c7.253 46.123 14.464 84.821 20.608 115.2s12.117 55.68 18.219 76.288c3.627 19.371 8.533 37.461 12.117 55.723z" />
<glyph unicode="&#xea54;" glyph-name="icn_radio_selected" d="M512 857.6c0.54 0.003 1.179 0.004 1.818 0.004 226.218 0 409.604-183.386 409.604-409.604 0-225.579-182.352-408.568-407.688-409.6h-3.733c-0.555-0.003-1.212-0.004-1.869-0.004-226.218 0-409.604 183.386-409.604 409.604 0 225.561 182.322 408.539 407.634 409.6h3.839zM512 960h-4.71c-281.758-1.338-509.65-230.055-509.65-512 0-282.773 229.233-512.005 512.005-512.005 0.828 0 1.656 0.002 2.483 0.006h4.685c281.736 1.367 509.599 230.073 509.599 512 0 282.773-229.233 512.006-512.006 512.006-0.846 0-1.692-0.002-2.537-0.006zM509.645 704c-140.696-0.906-254.402-115.172-254.402-255.995 0-141.385 114.615-256 256-256s256 114.615 256 256c0 0.826-0.004 1.652-0.012 2.477-1.068 140.19-115.064 253.527-255.531 253.527-0.723 0-1.444-0.003-2.166-0.009z" />
</font>
</defs>
</svg>
