<svg id="6ae91916-d2a6-42cb-8845-849e22d9b2e8" data-name="icn" xmlns="http://www.w3.org/2000/svg" width="24" height="24"><defs><style>.fe163d8d-8929-40b6-adef-d67bf8c02214 { fill: #1b1b1b; fill-rule: evenodd; }</style></defs><path id="c64643b2-4d20-4d02-90e1-5481f08a595d" data-name="icn_favorite_small_deselected" class="fe163d8d-8929-40b6-adef-d67bf8c02214" d="M14.7 17.28c-.505.47-1.017.935-1.53 1.4L12 19.734l-1.167-1.056c-2.807-2.533-5.71-5.152-6.526-7.767C3.4 8 4.557 5.296 7.055 4.47A4.393 4.393 0 0 1 12 6.383a4.4 4.4 0 0 1 4.946-1.913c2.5.825 3.654 3.533 2.747 6.44-.046.147-.122.3-.18.442l-1.224-1.316c.44-1.913-.273-3.558-1.838-4.074-1.777-.59-3.2 1.063-3.728 2.315L12 10.007l-.724-1.73C10.826 7.2 9.716 5.84 8.29 5.84a2.33 2.33 0 0 0-.743.122c-1.675.553-2.39 2.4-1.74 4.48.688 2.2 3.552 4.79 6.078 7.068l.115.1.115-.1c.5-.45 1.007-.912 1.512-1.38zm1.28-.456a.13.13 0 0 0 .148.148h1.2a.13.13 0 0 0 .15-.148V14.54a.078.078 0 0 1 .088-.09h2.27a.132.132 0 0 0 .15-.15v-1.156a.132.132 0 0 0-.15-.144h-2.27a.078.078 0 0 1-.09-.09v-2.29a.13.13 0 0 0-.15-.147h-1.2a.13.13 0 0 0-.147.148v2.287a.08.08 0 0 1-.09.09h-2.27a.132.132 0 0 0-.15.148V14.3a.132.132 0 0 0 .15.15h2.27a.08.08 0 0 1 .09.088z"/></svg>
