<?xml version="1.0" encoding="utf-8"?>
<!-- Generator: Adobe Illustrator 20.0.0, SVG Export Plug-In . SVG Version: 6.00 Build 0)  -->
<svg version="1.1" xmlns="http://www.w3.org/2000/svg" xmlns:xlink="http://www.w3.org/1999/xlink" x="0px" y="0px"
	 viewBox="0 0 28 28" style="enable-background:new 0 0 28 28;" xml:space="preserve" width="28" height="28">
<style type="text/css">
	.st0{fill:#FF0000;}
	.st1{fill:#17288B;}
	.st2{fill-rule:evenodd;clip-rule:evenodd;fill:#999999;}
	.st3{fill-rule:evenodd;clip-rule:evenodd;fill:#28788C;}
	.st4{fill-rule:evenodd;clip-rule:evenodd;fill:#FF0000;}
	.st5{fill:#DADADA;}
	.st6{fill-rule:evenodd;clip-rule:evenodd;fill:#DADADA;}
	.st7{fill-rule:evenodd;clip-rule:evenodd;fill:#1B1B1B;}
	.st8{fill:#FFFFFF;}
	.st9{fill:#3B5998;}
	.st10{fill:#55ACEE;}
	.st11{fill:#00C300;}
	.st12{fill:#7D7D7D;}
	.st13{fill-rule:evenodd;clip-rule:evenodd;fill:#FFFFFF;}
	.st14{fill-rule:evenodd;clip-rule:evenodd;fill:#191A1A;}
	.st15{fill:#999999;}
	.st16{fill-rule:evenodd;clip-rule:evenodd;fill:#E9EAEE;}
	.st17{fill:#28788C;}
	.st18{fill:#EBBE00;}
	.st19{fill:#1B1B1B;}
	.st20{opacity:0.7;fill-rule:evenodd;clip-rule:evenodd;fill:#1B1B1B;}
	.st21{fill:#242424;}
	.st22{fill:#B1B1B1;}
	.st23{fill:#FFF100;}
</style>
<g id="_x31_color">
	<rect y="0" class="st1" width="28" height="28"/>
</g>
<g id="_x32_color">
	<g>
		<path class="st23" d="M14.16,12.98H8.15v2.04h3.95c-0.45,1.76-2.05,3.06-3.95,3.06c-2.25,0-4.07-1.82-4.07-4.07
			c0-2.25,1.82-4.07,4.07-4.07c1.03,0,1.97,0.39,2.69,1.02h2.6c-1.06-1.82-3.02-3.05-5.29-3.05c-3.37,0-6.11,2.73-6.11,6.11
			c0,3.37,2.74,6.11,6.11,6.11c3.37,0,6.11-2.74,6.11-6.11C14.25,13.65,14.22,13.31,14.16,12.98z"/>
		<path class="st23" d="M23.93,8.66v6.62l0,0c0,1.55-1.25,2.8-2.8,2.8s-2.8-1.25-2.8-2.8V8.66h-2.04v6.62
			c0,2.67,2.17,4.84,4.84,4.84s4.84-2.17,4.84-4.84l0,0V8.66H23.93z"/>
	</g>
</g>
</svg>
