<svg xmlns="http://www.w3.org/2000/svg" viewBox="0 0 90 40" width="90" height="40">
  <path fill="red" d="M0 0h40v40H0z"/>
  <path fill="#17288b" d="M50 0h40v40H50z"/>
  <path fill="#fff" d="M29.48 5.47h2.53v12.64h-2.53zM13.47 13.9a4.21 4.21 0 0 1-8.42 0V5.47h2.53v8.43a1.68 1.68 0 1 0 3.36 0V5.47h2.53zm11.79 20.63h-8.42V21.89h2.53V32h5.89v2.53zm0-16.42h-2.53l-3.36-7.22v7.22h-2.53V5.47h2.53l3.36 7.22V5.47h2.53v12.64zm-16 3.78a4.21 4.21 0 0 0-4.21 4.22v4.21a4.21 4.21 0 0 0 4.21 4.21 4.34 4.34 0 0 0 .82-.07l.86 2.6h2.53l-1.25-3.75a4.2 4.2 0 0 0 1.25-3v-4.2a4.21 4.21 0 0 0-4.21-4.22m1.68 8.43a1.68 1.68 0 1 1-3.36 0v-4.21a1.68 1.68 0 1 1 3.36 0zm19.8-8.43a4.22 4.22 0 0 0-4.22 4.22v4.21a4.21 4.21 0 0 0 8.42 0v-4.21a4.21 4.21 0 0 0-4.21-4.22m1.68 8.43a1.68 1.68 0 0 1-3.37 0v-4.21a1.68 1.68 0 0 1 3.37 0z"/>
  <path fill="#fff100" d="M70.23 18.55h-8.6v2.91h5.64a5.83 5.83 0 1 1-1.79-5.82h3.71a8.92 8.92 0 1 0 1 2.91zm13.95-6.19v9.45a4 4 0 0 1-8 0v-9.45h-2.91v9.45a6.91 6.91 0 0 0 13.82 0v-9.45z"/>
</svg>
